<svg width="400" height="150" viewBox="0 0 1075 1034" fill="none" xmlns="http://www.w3.org/2000/svg">
    <path d="M302.669 211.54C286.027 211.54 268.339 207.959 268.339 201.323C268.339 194.687 286.027 191.106 302.669 191.106C319.312 191.106 337 194.687 337 201.323C337 207.959 319.312 211.54 302.669 211.54ZM302.669 193.106C283.616 193.106 270.339 197.437 270.339 201.323C270.339 205.209 283.616 209.54 302.669 209.54C321.722 209.54 335 205.209 335 201.323C335 197.437 321.722 193.106 302.669 193.106V193.106Z" fill="#3F3D56"/>
    <path d="M373.669 258.54C357.027 258.54 339.339 254.959 339.339 248.323C339.339 241.687 357.027 238.106 373.669 238.106C390.312 238.106 408 241.687 408 248.323C408 254.959 390.312 258.54 373.669 258.54ZM373.669 240.106C354.616 240.106 341.339 244.437 341.339 248.323C341.339 252.209 354.616 256.54 373.669 256.54C392.722 256.54 406 252.209 406 248.323C406 244.437 392.722 240.106 373.669 240.106V240.106Z" fill="#3F3D56"/>
    <path d="M677 149.804C630.38 142.364 577.29 138.394 522 138.394C471.4 138.394 422.65 141.714 379.02 147.974C379.03 147.304 379.04 146.634 379.07 145.964C380.226 107.074 396.549 70.1782 424.55 43.1638C452.55 16.1495 490.007 1.15914 528.914 1.39683C567.821 1.63452 605.091 17.0814 632.759 44.4359C660.428 71.7903 676.299 108.882 676.98 147.784C676.99 148.464 677 149.134 677 149.804Z" fill="#00B0FF"/>
    <g opacity="0.1">
        <path opacity="0.1" d="M547.55 1.34133C526.857 -1.45373 505.808 0.130426 485.766 5.99112C465.724 11.8518 447.138 21.8583 431.211 35.362C415.284 48.8656 402.372 65.5652 393.312 84.3784C384.252 103.192 379.246 123.698 378.619 144.57C378.589 145.24 378.579 145.91 378.569 146.58C391.531 144.72 404.954 143.127 418.734 141.796C420.42 107.025 434.225 73.9407 457.755 48.2849C481.285 22.6292 513.054 6.02064 547.55 1.34133V1.34133Z" fill="white"/>
    </g>
    <path d="M742.18 161.624C720.72 155.806 698.953 151.186 676.98 147.784C640.966 142.203 604.658 138.714 568.24 137.334C553.07 136.714 537.62 136.394 522 136.394C509.62 136.394 497.34 136.594 485.23 136.994C449.706 138.044 414.266 141.038 379.07 145.964C353.016 149.552 327.214 154.782 301.82 161.624C242.61 177.994 210 199.934 210 223.394C210 246.854 242.61 268.794 301.82 285.164C343.46 296.684 394.8 304.534 450.74 308.134C473.83 309.634 497.7 310.394 522 310.394C546.38 310.394 570.33 309.624 593.49 308.124C644.4 304.834 691.5 298.024 730.92 288.124C731.13 288.064 731.33 288.014 731.54 287.964C734.2 287.304 736.82 286.614 739.41 285.924C740.34 285.664 741.26 285.414 742.18 285.164C742.232 285.143 742.285 285.126 742.34 285.114C743.22 284.874 744.09 284.624 744.96 284.384C746.7 283.884 748.42 283.394 750.11 282.884C750.19 282.864 750.26 282.844 750.33 282.824C751.8 282.384 753.24 281.944 754.67 281.504C755.84 281.134 757 280.774 758.15 280.404C758.99 280.134 759.82 279.864 760.64 279.594C761.24 279.394 761.83 279.204 762.41 279.004C763.2 278.744 763.99 278.474 764.77 278.204C765.1 278.094 765.43 277.984 765.75 277.864C766.5 277.614 767.23 277.354 767.96 277.094C768.75 276.814 769.54 276.524 770.32 276.244C770.97 276.014 771.62 275.774 772.26 275.534C772.8 275.324 773.33 275.124 773.87 274.924C775.34 274.374 776.78 273.804 778.2 273.244C778.91 272.954 779.62 272.674 780.32 272.384C781.01 272.104 781.71 271.814 782.39 271.524C783.51 271.054 784.61 270.584 785.69 270.114C786.21 269.874 786.74 269.644 787.25 269.424C787.64 269.244 788.02 269.074 788.41 268.894C788.69 268.774 788.97 268.644 789.24 268.514C790.25 268.054 791.25 267.584 792.23 267.114C795.99 265.314 799.5 263.474 802.76 261.594C823.21 249.884 834 236.894 834 223.394C834 199.934 801.39 177.994 742.18 161.624ZM741.64 283.244C699.95 294.774 648.47 302.624 592.38 306.194C569.57 307.644 545.99 308.394 522 308.394C498.09 308.394 474.59 307.654 451.85 306.204C395.67 302.644 344.11 294.794 302.36 283.244C244.09 267.124 212 245.874 212 223.394C212.003 221.408 212.252 219.429 212.74 217.504C217.84 197.224 249.21 178.244 302.36 163.544C327.562 156.755 353.166 151.555 379.02 147.974C414.428 143.02 450.082 140.016 485.82 138.974C497.74 138.584 509.8 138.391 522 138.394C537.41 138.394 552.65 138.704 567.63 139.304C604.26 140.672 640.779 144.178 677 149.804C698.783 153.191 720.363 157.778 741.64 163.544C794.78 178.244 826.14 197.214 831.25 217.484C831.746 219.415 831.998 221.4 832 223.394C832 245.874 799.91 267.124 741.64 283.244V283.244Z" fill="#3F3D56"/>
    <path d="M833.43 224.304C833.43 237.664 822.42 250.304 802.76 261.594C799.49 263.474 795.97 265.314 792.23 267.114C791.25 267.584 790.25 268.054 789.24 268.514C788.97 268.644 788.69 268.774 788.41 268.894C788.02 269.074 787.64 269.244 787.25 269.424C786.74 269.644 786.21 269.874 785.69 270.114C784.61 270.584 783.51 271.054 782.39 271.524C781.71 271.814 781.01 272.104 780.32 272.384C779.62 272.674 778.91 272.954 778.2 273.244C776.78 273.804 775.34 274.374 773.87 274.924C773.33 275.124 772.8 275.324 772.26 275.534C771.62 275.774 770.97 276.014 770.32 276.244C769.54 276.524 768.75 276.814 767.96 277.094C767.23 277.354 766.5 277.614 765.75 277.864C765.43 277.984 765.1 278.094 764.77 278.204C763.99 278.474 763.2 278.744 762.41 279.004C761.83 279.204 761.24 279.394 760.64 279.594C759.82 279.864 758.99 280.134 758.15 280.404C757 280.774 755.84 281.134 754.67 281.504C753.24 281.944 751.8 282.384 750.33 282.824C750.26 282.844 750.19 282.864 750.11 282.884C748.42 283.394 746.7 283.884 744.96 284.384C744.09 284.624 743.22 284.874 742.34 285.114C742.285 285.126 742.232 285.143 742.18 285.164C741.26 285.414 740.34 285.664 739.41 285.924C736.83 286.604 734.2 287.294 731.54 287.964C731.33 288.014 731.13 288.064 730.92 288.124C692.57 297.704 645.52 304.684 593.45 308.054C570.64 309.524 546.86 310.304 522.43 310.304C497.78 310.304 473.8 309.514 450.81 308.014C313.57 299.064 211.43 264.984 211.43 224.304C211.441 221.829 211.818 219.369 212.55 217.004C212.61 217.174 212.67 217.334 212.74 217.504C227.01 254.984 328.28 285.274 459.68 292.664C479.81 293.804 500.66 294.394 522 294.394C543.43 294.394 564.36 293.794 584.57 292.654C715.86 285.234 817.03 254.934 831.25 217.484C831.49 216.884 831.7 216.284 831.88 215.684C832.894 218.445 833.418 221.362 833.43 224.304V224.304Z" fill="#3F3D56"/>
    <path d="M741.669 213.54C725.027 213.54 707.339 209.959 707.339 203.323C707.339 196.687 725.027 193.106 741.669 193.106C758.312 193.106 776 196.687 776 203.323C776 209.959 758.312 213.54 741.669 213.54ZM741.669 195.106C722.616 195.106 709.339 199.437 709.339 203.323C709.339 207.209 722.616 211.54 741.669 211.54C760.722 211.54 774 207.209 774 203.323C774 199.437 760.722 195.106 741.669 195.106V195.106Z" fill="#3F3D56"/>
    <path d="M671.669 258.54C655.027 258.54 637.339 254.959 637.339 248.323C637.339 241.687 655.027 238.106 671.669 238.106C688.312 238.106 706 241.687 706 248.323C706 254.959 688.312 258.54 671.669 258.54ZM671.669 240.106C652.616 240.106 639.339 244.437 639.339 248.323C639.339 252.209 652.616 256.54 671.669 256.54C690.722 256.54 704 252.209 704 248.323C704 244.437 690.722 240.106 671.669 240.106V240.106Z" fill="#3F3D56"/>
    <path d="M522.669 280.54C506.027 280.54 488.339 276.959 488.339 270.323C488.339 263.687 506.027 260.106 522.669 260.106C539.312 260.106 557 263.687 557 270.323C557 276.959 539.312 280.54 522.669 280.54ZM522.669 262.106C503.616 262.106 490.339 266.437 490.339 270.323C490.339 274.209 503.616 278.54 522.669 278.54C541.722 278.54 555 274.209 555 270.323C555 266.437 541.722 262.106 522.669 262.106V262.106Z" fill="#3F3D56"/>
    <path d="M547.978 490.717C571.181 490.717 589.99 471.907 589.99 448.704C589.99 425.501 571.181 406.692 547.978 406.692C524.775 406.692 505.966 425.501 505.966 448.704C505.966 471.907 524.775 490.717 547.978 490.717Z" fill="#2F2E41"/>
    <path d="M532.002 476.307L511.555 486.546L517.27 497.958L537.717 487.719L532.002 476.307Z" fill="#2F2E41"/>
    <path d="M519.966 496.8C521.178 494.961 518.186 490.849 513.282 487.615C508.378 484.382 503.419 483.252 502.207 485.091C500.994 486.93 503.987 491.042 508.891 494.275C513.795 497.509 518.753 498.639 519.966 496.8Z" fill="#2F2E41"/>
    <path d="M563.954 476.307L558.239 487.719L578.686 497.959L584.401 486.546L563.954 476.307Z" fill="#2F2E41"/>
    <path d="M587.065 494.275C591.969 491.042 594.962 486.93 593.749 485.091C592.537 483.252 587.578 484.382 582.674 487.615C577.77 490.849 574.777 494.961 575.99 496.8C577.203 498.639 582.161 497.509 587.065 494.275Z" fill="#2F2E41"/>
    <path d="M545.037 452.786C552.967 452.786 559.395 446.358 559.395 438.428C559.395 430.498 552.967 424.069 545.037 424.069C537.107 424.069 530.678 430.498 530.678 438.428C530.678 446.358 537.107 452.786 545.037 452.786Z" fill="white"/>
    <path d="M548.529 435.675C550.391 433.814 550.38 430.785 548.505 428.911C546.631 427.036 543.602 427.026 541.741 428.887C539.88 430.748 539.89 433.777 541.765 435.651C543.639 437.526 546.668 437.536 548.529 435.675Z" fill="#3F3D56"/>
    <path d="M581.12 402.999C581.752 387.446 568.347 374.272 551.179 373.574C534.011 372.877 519.582 384.92 518.95 400.474C518.318 416.028 530.252 419.562 547.42 420.259C564.587 420.956 580.488 418.553 581.12 402.999Z" fill="#00B0FF"/>
    <path d="M605.337 470.703C608.1 468.331 604.214 459.272 596.657 450.469C589.101 441.667 580.734 436.454 577.971 438.826C575.207 441.198 579.093 450.258 586.65 459.06C594.207 467.863 602.573 473.076 605.337 470.703Z" fill="#2F2E41"/>
    <path d="M509.423 459.06C516.98 450.258 520.866 441.199 518.102 438.826C515.339 436.454 506.973 441.667 499.416 450.469C491.859 459.272 487.973 468.331 490.737 470.703C493.5 473.076 501.866 467.863 509.423 459.06Z" fill="#2F2E41"/>
    <path d="M559.517 465.261C559.971 467.759 559.415 470.335 557.97 472.422C556.526 474.51 554.311 475.938 551.813 476.393C549.316 476.848 546.74 476.291 544.652 474.847C542.564 473.402 541.136 471.187 540.681 468.69L540.678 468.671C539.736 463.469 543.758 461.628 548.96 460.686C554.163 459.745 558.575 460.059 559.517 465.261Z" fill="white"/>
    <path d="M477 493.394C476.47 493.394 475.961 493.183 475.586 492.808C475.211 492.433 475 491.924 475 491.394V373.394C475 372.864 475.211 372.355 475.586 371.98C475.961 371.605 476.47 371.394 477 371.394C477.53 371.394 478.039 371.605 478.414 371.98C478.789 372.355 479 372.864 479 373.394V491.394C479 491.924 478.789 492.433 478.414 492.808C478.039 493.183 477.53 493.394 477 493.394Z" fill="#CCCCCC"/>
    <path d="M447 599.394C446.47 599.394 445.961 599.183 445.586 598.808C445.211 598.433 445 597.924 445 597.394V511.394C445 510.864 445.211 510.355 445.586 509.98C445.961 509.605 446.47 509.394 447 509.394C447.53 509.394 448.039 509.605 448.414 509.98C448.789 510.355 449 510.864 449 511.394V597.394C449 597.924 448.789 598.433 448.414 598.808C448.039 599.183 447.53 599.394 447 599.394V599.394Z" fill="#CCCCCC"/>
    <path d="M524 528.394C523.47 528.394 522.961 528.183 522.586 527.808C522.211 527.433 522 526.924 522 526.394V408.394C522 407.864 522.211 407.355 522.586 406.98C522.961 406.605 523.47 406.394 524 406.394C524.53 406.394 525.039 406.605 525.414 406.98C525.789 407.355 526 407.864 526 408.394V526.394C526 526.924 525.789 527.433 525.414 527.808C525.039 528.183 524.53 528.394 524 528.394Z" fill="#CCCCCC"/>
    <path d="M495 613.394C494.47 613.394 493.961 613.183 493.586 612.808C493.211 612.433 493 611.924 493 611.394V563.394C493 562.864 493.211 562.355 493.586 561.98C493.961 561.605 494.47 561.394 495 561.394C495.53 561.394 496.039 561.605 496.414 561.98C496.789 562.355 497 562.864 497 563.394V611.394C497 611.924 496.789 612.433 496.414 612.808C496.039 613.183 495.53 613.394 495 613.394V613.394Z" fill="#CCCCCC"/>
    <path d="M536 367.394C535.47 367.394 534.961 367.183 534.586 366.808C534.211 366.433 534 365.924 534 365.394V317.394C534 316.864 534.211 316.355 534.586 315.98C534.961 315.605 535.47 315.394 536 315.394C536.53 315.394 537.039 315.605 537.414 315.98C537.789 316.355 538 316.864 538 317.394V365.394C538 365.924 537.789 366.433 537.414 366.808C537.039 367.183 536.53 367.394 536 367.394V367.394Z" fill="#CCCCCC"/>
    <path d="M436 388.394C435.47 388.394 434.961 388.183 434.586 387.808C434.211 387.433 434 386.924 434 386.394V338.394C434 337.864 434.211 337.355 434.586 336.98C434.961 336.605 435.47 336.394 436 336.394C436.53 336.394 437.039 336.605 437.414 336.98C437.789 337.355 438 337.864 438 338.394V386.394C438 386.924 437.789 387.433 437.414 387.808C437.039 388.183 436.53 388.394 436 388.394V388.394Z" fill="#CCCCCC"/>
    <path d="M610 393.394C609.47 393.394 608.961 393.183 608.586 392.808C608.211 392.433 608 391.924 608 391.394V343.394C608 342.864 608.211 342.355 608.586 341.98C608.961 341.605 609.47 341.394 610 341.394C610.53 341.394 611.039 341.605 611.414 341.98C611.789 342.355 612 342.864 612 343.394V391.394C612 391.924 611.789 392.433 611.414 392.808C611.039 393.183 610.53 393.394 610 393.394Z" fill="#CCCCCC"/>
    <path d="M606 543.394C605.47 543.394 604.961 543.183 604.586 542.808C604.211 542.433 604 541.924 604 541.394V483.394C604 482.864 604.211 482.355 604.586 481.98C604.961 481.605 605.47 481.394 606 481.394C606.53 481.394 607.039 481.605 607.414 481.98C607.789 482.355 608 482.864 608 483.394V541.394C608 541.924 607.789 542.433 607.414 542.808C607.039 543.183 606.53 543.394 606 543.394Z" fill="#CCCCCC"/>
    <path d="M566 594.394C565.47 594.394 564.961 594.183 564.586 593.808C564.211 593.433 564 592.924 564 592.394V506.394C564 505.864 564.211 505.355 564.586 504.98C564.961 504.605 565.47 504.394 566 504.394C566.53 504.394 567.039 504.605 567.414 504.98C567.789 505.355 568 505.864 568 506.394V592.394C568 592.924 567.789 593.433 567.414 593.808C567.039 594.183 566.53 594.394 566 594.394Z" fill="#CCCCCC"/>
    <path d="M574 447.394C573.47 447.394 572.961 447.183 572.586 446.808C572.211 446.433 572 445.924 572 445.394V327.394C572 326.864 572.211 326.355 572.586 325.98C572.961 325.605 573.47 325.394 574 325.394C574.53 325.394 575.039 325.605 575.414 325.98C575.789 326.355 576 326.864 576 327.394V445.394C576 445.924 575.789 446.433 575.414 446.808C575.039 447.183 574.53 447.394 574 447.394Z" fill="#CCCCCC"/>
    <path d="M576.241 633.207C575.464 636.4 572.114 638.958 568.403 640.745C560.601 644.502 550.977 645.623 541.643 645.999C539.262 646.144 536.873 646.099 534.498 645.867C529.898 645.422 525.581 643.438 522.248 640.235C522.01 640.08 521.815 639.868 521.682 639.617C521.548 639.366 521.481 639.085 521.485 638.801C521.489 638.517 521.566 638.239 521.707 637.993C521.848 637.746 522.049 637.539 522.292 637.392C527.261 631.933 535.554 628.586 543.908 626.176C550.242 624.348 561.289 619.615 568.198 620.253C574.89 620.872 577.223 629.175 576.241 633.207Z" fill="#3F3D56"/>
    <path opacity="0.1" d="M576.241 633.207C575.464 636.4 572.114 638.958 568.403 640.745C560.601 644.502 550.977 645.623 541.643 645.999C539.262 646.144 536.873 646.099 534.498 645.867C529.898 645.422 525.581 643.438 522.248 640.235C522.01 640.08 521.815 639.868 521.682 639.617C521.548 639.366 521.481 639.085 521.485 638.801C521.489 638.517 521.566 638.239 521.707 637.993C521.848 637.746 522.049 637.539 522.292 637.392C527.261 631.933 535.554 628.586 543.908 626.176C550.242 624.348 561.289 619.615 568.198 620.253C574.89 620.872 577.223 629.175 576.241 633.207Z" fill="black"/>
    <path d="M1030.54 802.929C1031.73 799.649 1033.72 796.721 1036.34 794.414C1038.96 792.108 1042.12 790.497 1045.52 789.731L1047.23 799.915L1050.41 789.219C1054.82 789.285 1059.1 790.75 1062.62 793.405C1066.15 796.059 1068.73 799.764 1070.02 803.986C1071.3 808.207 1071.2 812.727 1069.75 816.891C1068.29 821.056 1065.55 824.651 1061.92 827.156C1058.29 829.661 1053.95 830.948 1049.54 830.83C1045.13 830.712 1040.88 829.195 1037.38 826.499C1033.89 823.803 1031.35 820.067 1030.12 815.831C1028.89 811.594 1029.03 807.076 1030.54 802.929H1030.54Z" stroke="#3F3D56" stroke-miterlimit="10"/>
    <path d="M9.00672 919.267C10.997 919.99 13.1282 920.242 15.2322 920.001C17.3362 919.761 19.3556 919.035 21.1312 917.88C22.9068 916.726 24.39 915.175 25.464 913.35C26.538 911.525 27.1734 909.475 27.3201 907.363C27.4668 905.25 27.1208 903.132 26.3094 901.176C25.498 899.22 24.2433 897.479 22.6442 896.091C21.0452 894.702 19.1455 893.704 17.0949 893.175C15.0444 892.646 12.8989 892.6 10.8277 893.042L11.17 900.08L7.84012 894.048C4.57204 895.584 2.04732 898.354 0.820762 901.75C0.38516 902.94 0.120346 904.185 0.0342206 905.449C-0.175962 908.415 0.586246 911.368 2.20534 913.861C3.82443 916.355 6.21217 918.252 9.00672 919.267V919.267Z" fill="#57B894"/>
    <path d="M25.483 1000.9C24.3076 994.911 29.401 989.605 34.4322 986.156C39.4633 982.707 45.3419 979.318 47.0586 973.464C49.5257 965.052 42.1769 957.348 36.4571 950.704C32.2136 945.774 28.5695 940.358 25.6009 934.569C24.3103 932.296 23.4312 929.812 23.0042 927.233C22.5532 923.504 23.7512 919.793 24.9581 916.237C28.9787 904.388 33.2775 892.638 37.8543 880.988" stroke="#3F3D56" stroke-miterlimit="10"/>
    <path d="M9.56997 917.455C11.5603 918.178 13.6914 918.43 15.7954 918.189C17.8995 917.948 19.9188 917.223 21.6944 916.068C23.47 914.914 24.9533 913.363 26.0272 911.538C27.1012 909.713 27.7366 907.663 27.8833 905.551C28.03 903.438 27.684 901.32 26.8726 899.364C26.0612 897.408 24.8065 895.667 23.2075 894.278C21.6084 892.89 19.7088 891.892 17.6582 891.363C15.6076 890.834 13.4622 890.788 11.391 891.23L11.7332 898.268L8.40336 892.236C5.13528 893.772 2.61055 896.542 1.38399 899.938C0.948397 901.128 0.683587 902.373 0.597457 903.637C0.38726 906.602 1.14946 909.556 2.76856 912.049C4.38766 914.543 6.7754 916.44 9.56997 917.455V917.455Z" stroke="#3F3D56" stroke-miterlimit="10"/>
    <path d="M23.8116 878.557C24.5927 876.402 25.9037 874.478 27.6236 872.963C29.3436 871.447 31.4174 870.389 33.6537 869.886L34.7796 876.577L36.867 869.55C39.7652 869.593 42.5747 870.555 44.89 872.299C47.2052 874.043 48.9064 876.478 49.7479 879.251C50.5894 882.025 50.5276 884.994 49.5715 887.731C48.6154 890.467 46.8145 892.828 44.4287 894.474C42.043 896.121 39.1958 896.966 36.2984 896.888C33.4009 896.811 30.603 895.814 28.3088 894.043C26.0145 892.272 24.3425 889.817 23.5341 887.034C22.7258 884.25 22.823 881.282 23.8116 878.557V878.557Z" fill="#57B894"/>
    <path d="M24.5625 876.141C25.3436 873.986 26.6545 872.062 28.3745 870.547C30.0945 869.031 32.1682 867.973 34.4046 867.47L35.5305 874.161L37.6178 867.134C40.516 867.177 43.3256 868.139 45.6408 869.883C47.9561 871.627 49.6573 874.062 50.4987 876.835C51.3402 879.609 51.2785 882.578 50.3224 885.315C49.3663 888.051 47.5654 890.412 45.1796 892.058C42.7938 893.705 39.9467 894.55 37.0492 894.472C34.1517 894.395 31.3539 893.398 29.0596 891.627C26.7653 889.856 25.0933 887.401 24.285 884.617C23.4767 881.834 23.5738 878.866 24.5625 876.141V876.141Z" stroke="#3F3D56" stroke-miterlimit="10"/>
    <path d="M34.0568 950.84C37.2133 951.985 40.6806 951.928 43.798 950.681C46.9154 949.434 49.4649 947.083 50.9605 944.077C52.4561 941.071 52.7932 937.619 51.9076 934.38C51.022 931.142 48.9756 928.342 46.1585 926.515L44.5546 931.915L43.4172 925.146C43.406 925.14 43.3944 925.136 43.3824 925.132C41.6941 924.518 39.9013 924.243 38.1066 924.322C36.3118 924.402 34.5503 924.834 32.9226 925.594C31.295 926.354 29.8331 927.428 28.6206 928.754C27.408 930.079 26.4686 931.631 25.856 933.32C25.2433 935.008 24.9695 936.801 25.0502 938.596C25.1308 940.391 25.5643 942.152 26.3259 943.779C27.0875 945.406 28.1623 946.867 29.4888 948.079C30.8153 949.29 32.3676 950.228 34.0568 950.84V950.84Z" fill="#57B894"/>
    <path d="M34.7074 948.393C37.8638 949.537 41.3312 949.481 44.4486 948.234C47.566 946.986 50.1154 944.636 51.611 941.63C53.1066 938.623 53.4437 935.172 52.5582 931.933C51.6726 928.694 49.6262 925.895 46.809 924.068L45.2051 929.468L44.0678 922.698C44.0566 922.693 44.0449 922.689 44.033 922.685C42.345 922.073 40.553 921.799 38.7592 921.879C36.9654 921.959 35.2049 922.392 33.5784 923.153C30.2934 924.689 27.7532 927.467 26.5165 930.876C25.2799 934.285 25.4481 938.046 26.9842 941.331C28.5203 944.616 31.2984 947.156 34.7074 948.393V948.393Z" stroke="#3F3D56" stroke-miterlimit="10"/>
    <path d="M19.8213 973.548C20.364 976.636 21.952 979.444 24.3191 981.5C26.6861 983.556 29.6882 984.736 32.8219 984.841C35.9555 984.947 39.0302 983.972 41.5302 982.079C44.0302 980.187 45.8035 977.493 46.5527 974.448C47.302 971.403 46.9815 968.194 45.6452 965.357C44.3089 962.521 42.0379 960.23 39.2131 958.87C36.3884 957.509 33.1816 957.161 30.1307 957.884C27.0797 958.607 24.3701 960.357 22.4563 962.84L28.5486 972.01L20.2242 967.143C19.5788 969.215 19.4406 971.411 19.8213 973.548V973.548Z" fill="#57B894"/>
    <path d="M20.3844 971.736C20.9271 974.824 22.5151 977.632 24.8822 979.688C27.2492 981.744 30.2513 982.924 33.385 983.029C36.5186 983.135 39.5933 982.16 42.0933 980.267C44.5933 978.375 46.3666 975.681 47.1158 972.636C47.8651 969.591 47.5447 966.382 46.2083 963.545C44.872 960.709 42.601 958.418 39.7762 957.058C36.9515 955.697 33.7447 955.349 30.6938 956.072C27.6428 956.795 24.9332 958.545 23.0194 961.028L29.1117 970.198L20.7873 965.331C20.1419 967.403 20.0037 969.599 20.3844 971.736V971.736Z" stroke="#3F3D56" stroke-miterlimit="10"/>
    <path d="M480.945 790.134C490.334 790.134 497.945 780.284 497.945 768.134C497.945 755.983 490.334 746.134 480.945 746.134C471.556 746.134 463.945 755.983 463.945 768.134C463.945 780.284 471.556 790.134 480.945 790.134Z" fill="#2F2E41"/>
    <path d="M573.445 790.634C582.834 790.634 590.445 780.784 590.445 768.634C590.445 756.483 582.834 746.634 573.445 746.634C564.056 746.634 556.445 756.483 556.445 768.634C556.445 780.784 564.056 790.634 573.445 790.634Z" fill="#2F2E41"/>
    <path d="M484.945 785.134C494.334 785.134 501.945 775.284 501.945 763.134C501.945 750.983 494.334 741.134 484.945 741.134C475.556 741.134 467.945 750.983 467.945 763.134C467.945 775.284 475.556 785.134 484.945 785.134Z" stroke="#3F3D56" stroke-miterlimit="10"/>
    <path d="M577.445 785.634C586.834 785.634 594.445 775.784 594.445 763.634C594.445 751.483 586.834 741.634 577.445 741.634C568.056 741.634 560.445 751.483 560.445 763.634C560.445 775.784 568.056 785.634 577.445 785.634Z" stroke="#3F3D56" stroke-miterlimit="10"/>
    <path d="M540.643 1033.25C831.973 1033.25 1068.14 1017.61 1068.14 998.327C1068.14 979.041 831.973 963.406 540.643 963.406C249.312 963.406 13.1427 979.041 13.1427 998.327C13.1427 1017.61 249.312 1033.25 540.643 1033.25Z" fill="#F2F2F2"/>
    <path d="M520.425 616.028C434.481 616.028 372.774 671.167 372.774 799.826C372.774 945.639 434.481 984.236 520.425 984.236C606.369 984.236 671.752 941.963 671.752 799.826C671.752 647.886 606.369 616.028 520.425 616.028ZM520.99 935.836C461.463 935.836 430.364 900.913 430.364 799.92C430.364 710.808 462.736 663.815 522.263 663.815C581.79 663.815 614.162 694.683 614.162 799.92C614.162 898.367 580.517 935.836 520.99 935.836Z" fill="#2F2E41"/>
    <path d="M321.311 882.535H285.776V777.895C285.776 772.338 283.568 767.007 279.638 763.077C275.708 759.147 270.378 756.94 264.82 756.94H256.494C253.742 756.94 251.017 757.482 248.475 758.535C245.932 759.588 243.622 761.131 241.676 763.077C239.73 765.023 238.187 767.333 237.133 769.876C236.08 772.418 235.538 775.143 235.538 777.895V882.535H135.308C133.246 882.535 131.219 882.002 129.424 880.988C127.629 879.973 126.126 878.512 125.062 876.746C123.997 874.98 123.408 872.969 123.35 870.908C123.292 868.847 123.767 866.806 124.73 864.983L230.813 664.202C232.135 661.699 232.937 658.954 233.169 656.132C233.402 653.311 233.06 650.471 232.165 647.786C231.269 645.1 229.839 642.623 227.96 640.505C226.081 638.388 223.793 636.672 221.232 635.464L214.97 632.506C210.108 630.21 204.548 629.871 199.443 631.559C194.337 633.248 190.076 636.834 187.541 641.576L58.1594 883.609C55.9562 887.73 54.8036 892.332 54.8036 897.005V897.005C54.8036 900.737 55.5386 904.432 56.9666 907.879C58.3946 911.327 60.4877 914.459 63.1264 917.098C65.7651 919.737 68.8976 921.83 72.3452 923.258C75.7927 924.686 79.4878 925.421 83.2194 925.421H235.538V991.588C235.538 994.887 236.188 998.153 237.45 1001.2C238.713 1004.25 240.563 1007.02 242.895 1009.35C245.228 1011.68 247.997 1013.53 251.045 1014.8C254.092 1016.06 257.359 1016.71 260.657 1016.71H260.657C263.956 1016.71 267.222 1016.06 270.27 1014.8C273.317 1013.53 276.087 1011.68 278.419 1009.35C280.752 1007.02 282.602 1004.25 283.864 1001.2C285.127 998.153 285.776 994.887 285.776 991.588V925.421H321.311C326.998 925.421 332.452 923.162 336.473 919.14C340.494 915.119 342.754 909.665 342.754 903.978V903.978C342.754 898.291 340.494 892.837 336.473 888.815C332.452 884.794 326.998 882.535 321.311 882.535V882.535Z" fill="#00B0FF"/>
    <path d="M979.307 882.535H943.773V777.895C943.773 772.338 941.565 767.007 937.635 763.077C933.705 759.147 928.375 756.94 922.817 756.94H914.49C911.739 756.94 909.014 757.482 906.471 758.535C903.929 759.588 901.618 761.131 899.672 763.077C897.727 765.023 896.183 767.333 895.13 769.876C894.077 772.418 893.535 775.143 893.535 777.895V882.535H793.305C791.243 882.535 789.216 882.002 787.42 880.988C785.625 879.973 784.122 878.512 783.058 876.746C781.994 874.98 781.404 872.969 781.346 870.908C781.288 868.847 781.764 866.806 782.727 864.983L888.809 664.202C890.132 661.699 890.934 658.954 891.166 656.132C891.398 653.311 891.056 650.471 890.161 647.786C889.266 645.1 887.835 642.623 885.956 640.505C884.078 638.388 881.789 636.672 879.229 635.464L872.967 632.506C868.104 630.21 862.545 629.871 857.439 631.559C852.334 633.248 848.072 636.834 845.537 641.576L716.156 883.609C713.953 887.73 712.8 892.332 712.8 897.005V897.005C712.8 904.541 715.794 911.769 721.123 917.098C726.452 922.427 733.68 925.421 741.216 925.421H893.535V991.588C893.535 998.25 896.181 1004.64 900.892 1009.35C905.603 1014.06 911.992 1016.71 918.654 1016.71V1016.71C925.316 1016.71 931.705 1014.06 936.415 1009.35C941.126 1004.64 943.773 998.25 943.773 991.588V925.421H979.307C984.994 925.421 990.448 923.162 994.469 919.14C998.491 915.119 1000.75 909.665 1000.75 903.978V903.978C1000.75 898.291 998.491 892.837 994.469 888.815C990.448 884.794 984.994 882.535 979.307 882.535Z" fill="#00B0FF"/>
    <path d="M331.113 870.282H295.579V765.642C295.579 762.89 295.037 760.165 293.984 757.623C292.931 755.08 291.387 752.77 289.441 750.824C287.495 748.878 285.185 747.335 282.643 746.282C280.1 745.228 277.375 744.686 274.623 744.686H266.297C260.739 744.686 255.409 746.894 251.479 750.824C247.549 754.754 245.341 760.084 245.341 765.642V870.282H145.111C143.049 870.282 141.022 869.749 139.227 868.734C137.431 867.72 135.929 866.259 134.864 864.493C133.8 862.727 133.21 860.716 133.152 858.655C133.094 856.594 133.57 854.553 134.533 852.73L240.615 651.949C241.938 649.446 242.74 646.701 242.972 643.879C243.204 641.058 242.862 638.218 241.967 635.532C241.072 632.847 239.642 630.37 237.763 628.252C235.884 626.134 233.595 624.419 231.035 623.21L224.773 620.253C219.91 617.957 214.351 617.618 209.245 619.306C204.14 620.994 199.879 624.581 197.344 629.323L67.962 871.356C65.7589 875.477 64.6062 880.078 64.6062 884.752V884.752C64.6062 892.288 67.6 899.516 72.929 904.845C78.258 910.174 85.4857 913.168 93.022 913.168H245.341V979.335C245.341 982.634 245.991 985.9 247.253 988.948C248.515 991.995 250.365 994.764 252.698 997.097C255.031 999.429 257.8 1001.28 260.847 1002.54C263.895 1003.8 267.161 1004.45 270.46 1004.45H270.46C277.122 1004.45 283.511 1001.81 288.222 997.097C292.932 992.386 295.579 985.997 295.579 979.335V913.168H331.113C333.929 913.168 336.717 912.613 339.319 911.535C341.921 910.458 344.285 908.878 346.276 906.887C348.267 904.896 349.846 902.532 350.924 899.931C352.002 897.329 352.556 894.541 352.556 891.725V891.725C352.556 888.909 352.002 886.12 350.924 883.519C349.846 880.917 348.267 878.553 346.276 876.562C344.285 874.571 341.921 872.991 339.319 871.914C336.717 870.836 333.929 870.282 331.113 870.282V870.282Z" stroke="#3F3D56" stroke-miterlimit="10"/>
    <path d="M997.687 870.282H962.153V765.642C962.153 760.084 959.945 754.754 956.015 750.824C952.085 746.894 946.755 744.686 941.197 744.686H932.87C930.118 744.686 927.393 745.228 924.851 746.282C922.308 747.335 919.998 748.878 918.052 750.824C916.106 752.77 914.563 755.08 913.51 757.623C912.457 760.165 911.915 762.89 911.915 765.642V870.282H811.684C809.623 870.282 807.596 869.749 805.8 868.734C804.005 867.72 802.502 866.259 801.438 864.493C800.374 862.727 799.784 860.716 799.726 858.655C799.668 856.594 800.144 854.553 801.107 852.73L907.189 651.949C908.512 649.446 909.313 646.701 909.546 643.879C909.778 641.058 909.436 638.218 908.541 635.532C907.646 632.847 906.215 630.37 904.336 628.252C902.457 626.134 900.169 624.419 897.609 623.21L891.347 620.253C886.484 617.957 880.925 617.618 875.819 619.306C870.714 620.994 866.452 624.581 863.917 629.323L734.536 871.356C732.333 875.477 731.18 880.078 731.18 884.752C731.18 892.288 734.174 899.516 739.503 904.845C744.832 910.174 752.059 913.168 759.596 913.168H911.915V979.335C911.915 985.997 914.561 992.386 919.272 997.097C923.982 1001.81 930.372 1004.45 937.034 1004.45V1004.45C943.696 1004.45 950.085 1001.81 954.795 997.097C959.506 992.386 962.153 985.997 962.153 979.335V913.168H997.687C1000.5 913.168 1003.29 912.613 1005.89 911.535C1008.49 910.458 1010.86 908.878 1012.85 906.887C1014.84 904.896 1016.42 902.532 1017.5 899.931C1018.58 897.329 1019.13 894.541 1019.13 891.725V891.725C1019.13 886.038 1016.87 880.583 1012.85 876.562C1008.83 872.541 1003.37 870.282 997.687 870.282V870.282Z" stroke="#3F3D56" stroke-miterlimit="10"/>
    <path d="M540.03 605C454.086 605 392.379 660.139 392.379 788.798C392.379 934.611 454.086 973.208 540.03 973.208C625.974 973.208 691.357 930.935 691.357 788.798C691.357 636.858 625.974 605 540.03 605ZM540.595 924.808C481.068 924.808 449.969 889.886 449.969 788.892C449.969 699.78 482.341 652.787 541.868 652.787C601.395 652.787 633.767 683.655 633.767 788.892C633.767 887.339 600.122 924.808 540.595 924.808V924.808Z" stroke="#3F3D56" stroke-miterlimit="10"/>
    <path d="M1006.86 868.568C1009.89 869.669 1013.14 870.052 1016.34 869.685C1019.54 869.319 1022.61 868.214 1025.32 866.458C1028.02 864.701 1030.28 862.34 1031.91 859.562C1033.55 856.784 1034.51 853.665 1034.74 850.449C1034.96 847.234 1034.43 844.01 1033.2 841.033C1031.96 838.056 1030.05 835.406 1027.62 833.293C1025.19 831.18 1022.29 829.66 1019.17 828.855C1016.05 828.05 1012.79 827.98 1009.63 828.652L1010.16 839.365L1005.09 830.184C1000.11 832.521 996.271 836.738 994.404 841.907C993.741 843.717 993.338 845.613 993.207 847.537C992.887 852.05 994.047 856.545 996.511 860.34C998.976 864.135 1002.61 867.024 1006.86 868.568V868.568Z" fill="#57B894"/>
    <path d="M1031.94 992.811C1030.15 983.701 1037.9 975.624 1045.56 970.375C1053.22 965.125 1062.17 959.967 1064.78 951.058C1068.53 938.254 1057.35 926.528 1048.64 916.416C1042.18 908.912 1036.64 900.669 1032.12 891.859C1030.31 888.326 1028.64 884.633 1028.17 880.692C1027.48 875.017 1029.3 869.369 1031.14 863.956C1037.26 845.921 1043.8 828.038 1050.77 810.306" stroke="#3F3D56" stroke-miterlimit="10"/>
    <path d="M1007.72 865.81C1010.75 866.911 1013.99 867.294 1017.2 866.928C1020.4 866.561 1023.47 865.456 1026.17 863.7C1028.88 861.943 1031.13 859.583 1032.77 856.805C1034.4 854.027 1035.37 850.907 1035.59 847.691C1035.82 844.476 1035.29 841.253 1034.06 838.275C1032.82 835.298 1030.91 832.648 1028.48 830.535C1026.04 828.422 1023.15 826.902 1020.03 826.097C1016.91 825.292 1013.64 825.223 1010.49 825.895L1011.01 836.607L1005.94 827.426C1000.97 829.764 997.128 833.98 995.261 839.149C994.598 840.96 994.195 842.855 994.064 844.779C993.744 849.293 994.904 853.787 997.368 857.582C999.833 861.378 1003.47 864.266 1007.72 865.81V865.81Z" stroke="#3F3D56" stroke-miterlimit="10"/>
    <path d="M1029.4 806.606C1030.59 803.326 1032.58 800.398 1035.2 798.091C1037.82 795.785 1040.97 794.175 1044.38 793.409L1046.09 803.592L1049.27 792.897C1053.68 792.962 1057.95 794.428 1061.48 797.082C1065 799.736 1067.59 803.441 1068.87 807.663C1070.15 811.885 1070.06 816.404 1068.6 820.569C1067.15 824.733 1064.41 828.328 1060.78 830.833C1057.15 833.339 1052.81 834.625 1048.4 834.507C1043.99 834.389 1039.73 832.872 1036.24 830.176C1032.75 827.48 1030.2 823.744 1028.97 819.508C1027.74 815.271 1027.89 810.753 1029.4 806.606H1029.4Z" fill="#57B894"/>
    <path d="M1044.99 916.622C1049.79 918.365 1055.07 918.279 1059.82 916.381C1064.56 914.482 1068.44 910.904 1070.72 906.329C1072.99 901.754 1073.51 896.5 1072.16 891.571C1070.81 886.642 1067.7 882.38 1063.41 879.6L1060.97 887.819L1059.24 877.515C1059.22 877.507 1059.2 877.5 1059.18 877.495C1056.61 876.561 1053.89 876.143 1051.15 876.264C1048.42 876.385 1045.74 877.043 1043.27 878.2C1040.79 879.357 1038.56 880.991 1036.72 883.009C1034.87 885.026 1033.44 887.388 1032.51 889.958C1031.58 892.528 1031.16 895.256 1031.29 897.988C1031.41 900.719 1032.07 903.399 1033.23 905.875C1034.38 908.352 1036.02 910.575 1038.04 912.419C1040.06 914.263 1042.42 915.692 1044.99 916.622H1044.99Z" fill="#57B894"/>
    <path d="M1045.98 912.898C1050.78 914.64 1056.06 914.554 1060.81 912.656C1065.55 910.758 1069.43 907.18 1071.71 902.604C1073.98 898.029 1074.5 892.776 1073.15 887.846C1071.8 882.917 1068.69 878.656 1064.4 875.875L1061.96 884.094L1060.23 873.791C1060.21 873.783 1060.19 873.776 1060.17 873.77C1057.6 872.837 1054.88 872.418 1052.14 872.539C1049.41 872.66 1046.73 873.318 1044.26 874.475C1041.78 875.633 1039.55 877.267 1037.71 879.284C1035.86 881.302 1034.43 883.663 1033.5 886.233C1032.57 888.803 1032.15 891.532 1032.28 894.263C1032.4 896.994 1033.06 899.675 1034.22 902.151C1035.38 904.627 1037.01 906.851 1039.03 908.695C1041.05 910.539 1043.41 911.967 1045.98 912.898H1045.98Z" stroke="#3F3D56" stroke-miterlimit="10"/>
    <path d="M1023.32 951.185C1024.15 955.885 1026.57 960.158 1030.17 963.288C1033.77 966.418 1038.34 968.213 1043.11 968.374C1047.88 968.535 1052.56 967.05 1056.36 964.17C1060.17 961.29 1062.87 957.189 1064.01 952.555C1065.15 947.921 1064.66 943.036 1062.63 938.719C1060.59 934.402 1057.14 930.915 1052.84 928.844C1048.54 926.773 1043.66 926.243 1039.01 927.344C1034.37 928.444 1030.25 931.108 1027.33 934.888L1036.61 948.844L1023.94 941.437C1022.95 944.59 1022.74 947.933 1023.32 951.185V951.185Z" fill="#57B894"/>
    <path d="M1024.18 948.427C1025.01 953.127 1027.42 957.401 1031.03 960.53C1034.63 963.66 1039.2 965.456 1043.97 965.616C1048.74 965.777 1053.42 964.293 1057.22 961.412C1061.03 958.532 1063.73 954.431 1064.87 949.797C1066.01 945.163 1065.52 940.278 1063.48 935.961C1061.45 931.644 1057.99 928.158 1053.7 926.086C1049.4 924.015 1044.52 923.486 1039.87 924.586C1035.23 925.686 1031.1 928.35 1028.19 932.13L1037.46 946.086L1024.79 938.679C1023.81 941.832 1023.6 945.175 1024.18 948.427V948.427Z" stroke="#3F3D56" stroke-miterlimit="10"/>
    <path d="M560.445 833.634C560.445 843.574 546.565 851.634 529.445 851.634C512.325 851.634 498.445 843.574 498.445 833.634C498.445 825.024 508.855 817.824 522.765 816.064C524.98 815.771 527.212 815.628 529.445 815.634C533.188 815.621 536.921 816.024 540.575 816.834C552.195 819.424 560.445 825.974 560.445 833.634Z" fill="#2F2E41"/>
    <path d="M533.445 846.634C550.566 846.634 564.445 838.575 564.445 828.634C564.445 818.692 550.566 810.634 533.445 810.634C516.324 810.634 502.445 818.692 502.445 828.634C502.445 838.575 516.324 846.634 533.445 846.634Z" stroke="#3F3D56" stroke-miterlimit="10"/>
    <path d="M540.945 818.334C540.953 819.591 540.481 820.804 539.625 821.726C539.221 822.167 538.73 822.52 538.182 822.762C537.635 823.004 537.044 823.131 536.445 823.134H526.445C525.213 823.091 524.048 822.562 523.205 821.662C522.361 820.763 521.909 819.566 521.945 818.334C521.94 817.359 522.225 816.404 522.765 815.592C524.978 815.281 527.21 815.128 529.445 815.134C533.193 815.121 536.928 815.551 540.575 816.414C540.822 817.023 540.948 817.676 540.945 818.334V818.334Z" fill="white"/>
    <path d="M484.945 762.134C487.707 762.134 489.945 759.895 489.945 757.134C489.945 754.372 487.707 752.134 484.945 752.134C482.184 752.134 479.945 754.372 479.945 757.134C479.945 759.895 482.184 762.134 484.945 762.134Z" fill="white"/>
    <path d="M577.945 762.134C580.707 762.134 582.945 759.895 582.945 757.134C582.945 754.372 580.707 752.134 577.945 752.134C575.184 752.134 572.945 754.372 572.945 757.134C572.945 759.895 575.184 762.134 577.945 762.134Z" fill="white"/>
    <path opacity="0.3" d="M582.945 809.134C585.707 809.134 587.945 806.895 587.945 804.134C587.945 801.372 585.707 799.134 582.945 799.134C580.184 799.134 577.945 801.372 577.945 804.134C577.945 806.895 580.184 809.134 582.945 809.134Z" fill="#00B0FF"/>
    <path opacity="0.3" d="M460.945 809.134C463.707 809.134 465.945 806.895 465.945 804.134C465.945 801.372 463.707 799.134 460.945 799.134C458.184 799.134 455.945 801.372 455.945 804.134C455.945 806.895 458.184 809.134 460.945 809.134Z" fill="#00B0FF"/>
    <path d="M770.492 979.523C773.355 977.127 769.486 967.792 761.852 958.673C754.217 949.554 745.707 944.105 742.845 946.502C739.982 948.899 743.851 958.234 751.485 967.352C759.12 976.471 767.63 981.92 770.492 979.523Z" fill="#2F2E41"/>
    <path d="M751.719 969.154C759.24 946.589 747.045 922.199 724.48 914.677C701.916 907.156 677.526 919.351 670.004 941.915C662.482 964.48 674.677 988.87 697.242 996.392C719.807 1003.91 744.197 991.718 751.719 969.154Z" fill="#2F2E41"/>
    <path d="M729.09 989.334H716.006V1012.78H729.09V989.334Z" fill="#2F2E41"/>
    <path d="M702.923 989.334H689.839V1012.78H702.923V989.334Z" fill="#2F2E41"/>
    <path d="M718.187 1017.14C724.209 1017.14 729.09 1015.31 729.09 1013.05C729.09 1010.79 724.209 1008.96 718.187 1008.96C712.165 1008.96 707.284 1010.79 707.284 1013.05C707.284 1015.31 712.165 1017.14 718.187 1017.14Z" fill="#2F2E41"/>
    <path d="M692.02 1016.59C698.041 1016.59 702.923 1014.76 702.923 1012.5C702.923 1010.25 698.041 1008.41 692.02 1008.41C685.998 1008.41 681.116 1010.25 681.116 1012.5C681.116 1014.76 685.998 1016.59 692.02 1016.59Z" fill="#2F2E41"/>
    <path d="M697.338 901.398C701.184 885.911 718.159 876.797 735.253 881.041C752.347 885.286 763.087 901.282 759.242 916.769C755.396 932.256 742.638 932.306 725.544 928.061C708.45 923.816 693.493 916.885 697.338 901.398Z" fill="#CCCCCC"/>
    <path d="M681.809 944.779C683.409 941.406 675.995 934.54 665.25 929.443C654.505 924.347 644.497 922.95 642.897 926.323C641.297 929.697 648.711 936.563 659.456 941.659C670.202 946.755 680.21 948.152 681.809 944.779Z" fill="#2F2E41"/>
    <path d="M704.423 960.806C712.353 960.806 718.781 954.377 718.781 946.447C718.781 938.517 712.353 932.088 704.423 932.088C696.493 932.088 690.064 938.517 690.064 946.447C690.064 954.377 696.493 960.806 704.423 960.806Z" fill="white"/>
    <path d="M698.521 946.087C701.165 946.087 703.307 943.944 703.307 941.3C703.307 938.657 701.165 936.514 698.521 936.514C695.878 936.514 693.735 938.657 693.735 941.3C693.735 943.944 695.878 946.087 698.521 946.087Z" fill="#3F3D56"/>
    <path d="M704.299 982.426C707.613 982.426 710.299 979.74 710.299 976.426C710.299 973.113 707.613 970.426 704.299 970.426C700.985 970.426 698.299 973.113 698.299 976.426C698.299 979.74 700.985 982.426 704.299 982.426Z" fill="white"/>
</svg>