<svg width="60" height="60" viewBox="0 0 100 100" fill="none" xmlns="http://www.w3.org/2000/svg">
<path fill-rule="evenodd" clip-rule="evenodd" d="M42.8571 0H57.1429C80.8122 0 100 19.1874 100 42.8572V57.1429C100 80.812 80.8122 100 57.1429 100H42.8571C19.1878 100 0 80.812 0 57.1429V42.8572C0 19.1874 19.1878 0 42.8571 0Z" fill="url(#paint0_linear)"/>
<path d="M65.5537 22.0001C64.9228 21.9954 64.314 22.229 63.8523 22.6531C63.6337 22.8514 63.4584 23.0916 63.3373 23.3591C63.2162 23.6266 63.1518 23.9157 63.1481 24.2086L63.0785 34.8733C63.068 36.1049 64.1397 37.1145 65.4686 37.1254L67.4648 37.1627C67.5841 37.1649 67.7017 37.1909 67.8105 37.2392C67.9193 37.2874 68.0171 37.3568 68.098 37.4433C68.1789 37.5298 68.2412 37.6315 68.2812 37.7423C68.3212 37.8532 68.338 37.9709 68.3307 38.0883L68.0097 43.2568L75.4995 37.4216C75.6579 37.3004 75.8526 37.2344 76.053 37.2337L84.5003 37.2827H84.5223C85.8429 37.2827 86.92 36.2952 86.9304 35.0721L87 24.4092C87.0016 24.1157 86.9423 23.825 86.8257 23.555C86.7091 23.2849 86.5377 23.0413 86.3221 22.8391C85.8619 22.402 85.248 22.1576 84.6091 22.1573L65.5759 22.0001H65.5537ZM46.3194 22.1517C45.3426 22.1742 44.4139 22.5742 43.7331 23.2655C43.0524 23.9568 42.6742 24.8842 42.6799 25.8479V27.6673C42.6811 28.6418 43.0741 29.5761 43.7727 30.2651C44.4713 30.9542 45.4185 31.3418 46.4065 31.3428C47.3944 31.3417 48.3416 30.9542 49.0402 30.2651C49.7387 29.576 50.1317 28.6418 50.1328 27.6673V25.8479C50.1357 25.3562 50.0386 24.8689 49.8471 24.4149C49.6557 23.9608 49.3738 23.5493 49.0183 23.2046C48.6627 22.86 48.2406 22.5892 47.777 22.4083C47.3134 22.2275 46.8178 22.1402 46.3194 22.1517ZM68.7717 26.353H81.3058C81.5403 26.353 81.7653 26.4449 81.9311 26.6085C82.097 26.7721 82.1902 26.9939 82.1902 27.2253C82.1902 27.4567 82.097 27.6785 81.9311 27.8421C81.7653 28.0057 81.5403 28.0976 81.3058 28.0976H68.7717C68.5371 28.0976 68.3122 28.0057 68.1463 27.8421C67.9805 27.6785 67.8873 27.4567 67.8873 27.2253C67.8873 26.9939 67.9805 26.7721 68.1463 26.6085C68.3122 26.4449 68.5371 26.353 68.7717 26.353ZM68.7717 30.7032H76.3551C76.5895 30.7034 76.8143 30.7953 76.98 30.9589C77.1457 31.1225 77.2388 31.3443 77.2388 31.5755C77.2388 31.8068 77.1457 32.0285 76.98 32.1921C76.8143 32.3557 76.5895 32.4477 76.3551 32.4478H68.7717C68.5372 32.4477 68.3125 32.3557 68.1468 32.1921C67.9811 32.0285 67.888 31.8068 67.888 31.5755C67.888 31.3443 67.9811 31.1225 68.1468 30.9589C68.3125 30.7953 68.5372 30.7034 68.7717 30.7032ZM39.9071 35.0792C39.3608 35.0791 38.8206 35.192 38.3213 35.4107C37.822 35.6293 37.3747 35.9488 37.0084 36.3486C36.6421 36.7483 36.3648 37.2194 36.1946 37.7314C36.0243 38.2435 35.9648 38.785 36.0199 39.3211C36.023 39.3503 36.0246 39.3796 36.0246 39.409V53.3887C36.0247 53.6051 36.0683 53.8193 36.1529 54.0189C36.2375 54.2186 36.3614 54.3997 36.5174 54.5519C36.6734 54.704 36.8585 54.8241 37.0619 54.9051C37.2653 54.9862 37.483 55.0267 37.7023 55.0243C38.6067 55.0142 39.3423 54.2486 39.3423 53.3181V44.0303C39.3423 43.799 39.4355 43.5771 39.6013 43.4135C39.7672 43.2499 39.9921 43.158 40.2267 43.158C40.4612 43.158 40.6862 43.2499 40.852 43.4135C41.0179 43.5771 41.1111 43.799 41.1111 44.0303V49.6749C41.1191 49.7172 41.124 49.76 41.1256 49.803L41.1725 51.3527H51.9884L52.0198 50.3109V44.0303C52.0198 43.799 52.1129 43.5771 52.2788 43.4135C52.4446 43.2499 52.6696 43.158 52.9041 43.158C53.1387 43.158 53.3636 43.2499 53.5295 43.4135C53.6953 43.5771 53.7885 43.799 53.7885 44.0303V49.6703C53.7999 49.7311 53.8047 49.793 53.8028 49.8548L53.7885 50.3379V53.386C53.7926 53.8179 53.9695 54.2308 54.2806 54.5347C54.5917 54.8387 55.0119 55.0093 55.4498 55.0093C55.8877 55.0093 56.3079 54.8387 56.619 54.5347C56.9301 54.2308 57.107 53.8179 57.1111 53.386V39.4082C57.1112 39.3788 57.1127 39.3494 57.1158 39.3201C57.1709 38.7842 57.1113 38.2428 56.9411 37.731C56.7709 37.2191 56.4937 36.7482 56.1276 36.3485C55.7614 35.9489 55.3143 35.6294 54.8152 35.4108C54.316 35.1922 53.776 35.0792 53.2299 35.0792L51.1524 35.0797L47.1727 38.7628C47.1642 38.7706 47.1552 38.7772 47.1465 38.7847C47.1378 38.7921 47.131 38.7978 47.1231 38.8041C47.0616 38.8534 46.9936 38.8943 46.921 38.9256C46.9178 38.927 46.9148 38.929 46.9116 38.9302C46.9084 38.9315 46.9058 38.932 46.9027 38.9331C46.8652 38.9486 46.8266 38.9615 46.7872 38.9716H46.7853C46.7483 38.9806 46.7108 38.9872 46.673 38.9913C46.6645 38.9923 46.6562 38.9935 46.6478 38.9942C46.61 38.9977 46.572 38.9989 46.5341 38.9976C46.5298 38.9976 46.5257 38.9969 46.5215 38.9967C46.487 38.9948 46.4526 38.9909 46.4186 38.985C46.4104 38.9836 46.4021 38.9825 46.3939 38.9808C46.3561 38.9735 46.3189 38.9639 46.2824 38.9519C46.28 38.9511 46.2777 38.9499 46.2755 38.9492C46.2408 38.9372 46.2071 38.9229 46.1743 38.9066C46.1677 38.9034 46.1619 38.9 46.1548 38.8966C46.1197 38.8786 46.0859 38.8581 46.0536 38.8355C46.0517 38.8343 46.0501 38.8326 46.0482 38.8314C46.0185 38.8099 45.9901 38.7865 45.9633 38.7615C45.9594 38.7579 45.9552 38.7552 45.9507 38.7516L42.1235 35.0792H39.9071ZM41.2248 53.0971L41.9518 77.2237C41.9708 77.7071 42.1814 78.1638 42.5382 78.4956C42.8949 78.8275 43.3694 79.0082 43.8597 78.9987C44.35 78.9892 44.817 78.7904 45.1604 78.445C45.5037 78.0996 45.6959 77.6351 45.6958 77.1514V56.6056C45.6958 56.3743 45.789 56.1524 45.9549 55.9888C46.1207 55.8252 46.3457 55.7333 46.5802 55.7333C46.8148 55.7333 47.0397 55.8252 47.2056 55.9888C47.3714 56.1524 47.4646 56.3743 47.4646 56.6056V77.1514C47.4642 77.6358 47.6568 78.1009 48.0007 78.4466C48.3447 78.7923 48.8125 78.991 49.3035 78.9997C49.7945 79.0084 50.2693 78.8266 50.6257 78.4934C50.9821 78.1602 51.1915 77.7022 51.2089 77.2181L51.9359 53.0971H41.2248Z" fill="white"/>
<defs>
<linearGradient id="paint0_linear" x1="57.7332" y1="160.59" x2="160.59" y2="42.2674" gradientUnits="userSpaceOnUse">
<stop stop-color="#FF9719"/>
<stop offset="1" stop-color="#FF9719"/>
</linearGradient>
</defs>
</svg>
