<?xml version="1.0" encoding="UTF-8"?>
<svg xmlns="http://www.w3.org/2000/svg" xmlns:xlink="http://www.w3.org/1999/xlink" viewBox="0 0 60 60" width="60px" height="60px">
<g id="surface149815901">
<path style=" stroke:none;fill-rule:nonzero;fill:rgb(100%,98.039216%,0.784314%);fill-opacity:1;" d="M 54.875 37 L 46.375 37 C 46.925781 37 47.375 36.550781 47.375 36 L 47.375 16 C 47.375 15.449219 46.925781 15 46.375 15 L 39.375 15 L 39.375 2 C 39.375 1.449219 38.925781 1 38.375 1 L 13.75 1 C 13.199219 1 12.75 1.449219 12.75 2 L 12.75 28 C 12.75 28.550781 13.199219 29 13.75 29 L 5.125 29 C 4.574219 29 4.125 29.449219 4.125 30 L 4.125 58 C 4.125 58.550781 4.574219 59 5.125 59 L 30.75 59 C 31.300781 59 31.75 58.550781 31.75 58 C 31.75 58.550781 32.199219 59 32.75 59 L 54.875 59 C 55.425781 59 55.875 58.550781 55.875 58 L 55.875 38 C 55.875 37.449219 55.425781 37 54.875 37 Z M 54.875 37 "/>
<path style=" stroke:none;fill-rule:nonzero;fill:rgb(81.960785%,90.588236%,100%);fill-opacity:1;" d="M 39.375 2 L 39.375 4.75 L 18.75 4.75 C 18.199219 4.75 17.75 5.199219 17.75 5.75 L 17.75 29 L 13.75 29 C 13.199219 29 12.75 28.550781 12.75 28 L 12.75 2 C 12.75 1.449219 13.199219 1 13.75 1 L 38.375 1 C 38.925781 1 39.375 1.449219 39.375 2 Z M 39.375 2 "/>
<path style=" stroke:none;fill-rule:nonzero;fill:rgb(81.960785%,90.588236%,100%);fill-opacity:1;" d="M 29.5 1 L 29.5 7.648438 C 29.5 8.355469 28.785156 8.839844 28.128906 8.578125 L 26.425781 7.894531 C 26.191406 7.800781 25.929688 7.800781 25.695312 7.890625 L 23.859375 8.601562 C 23.203125 8.851562 22.5 8.371094 22.5 7.667969 L 22.5 1 Z M 29.5 1 "/>
<path style=" stroke:none;fill-rule:nonzero;fill:rgb(90.980393%,95.294118%,100%);fill-opacity:1;" d="M 29.5 1 L 29.5 3.75 C 29.5 4.300781 29.050781 4.75 28.5 4.75 L 23.5 4.75 C 22.949219 4.75 22.5 4.300781 22.5 3.75 L 22.5 1 Z M 29.5 1 "/>
<path style=" stroke:none;fill-rule:nonzero;fill:rgb(81.960785%,90.588236%,100%);fill-opacity:1;" d="M 55.875 38 L 55.875 40.75 L 37.75 40.75 C 37.199219 40.75 36.75 41.199219 36.75 41.75 L 36.75 59 L 32.75 59 C 32.199219 59 31.75 58.550781 31.75 58 L 31.75 38 C 31.75 37.449219 32.199219 37 32.75 37 L 54.875 37 C 55.425781 37 55.875 37.449219 55.875 38 Z M 55.875 38 "/>
<path style=" stroke:none;fill-rule:nonzero;fill:rgb(81.960785%,90.588236%,100%);fill-opacity:1;" d="M 47.375 37 L 47.375 43.523438 C 47.375 44.230469 46.660156 44.714844 46.003906 44.453125 L 44.300781 43.769531 C 44.066406 43.675781 43.804688 43.675781 43.570312 43.765625 L 41.734375 44.476562 C 41.078125 44.726562 40.375 44.246094 40.375 43.542969 L 40.375 37 Z M 47.375 37 "/>
<path style=" stroke:none;fill-rule:nonzero;fill:rgb(90.980393%,95.294118%,100%);fill-opacity:1;" d="M 47.375 37 L 47.375 39.75 C 47.375 40.300781 46.925781 40.75 46.375 40.75 L 41.375 40.75 C 40.824219 40.75 40.375 40.300781 40.375 39.75 L 40.375 37 Z M 47.375 37 "/>
<path style=" stroke:none;fill-rule:nonzero;fill:rgb(81.960785%,90.588236%,100%);fill-opacity:1;" d="M 47.375 16 L 47.375 18.75 L 29.25 18.75 C 28.699219 18.75 28.25 19.199219 28.25 19.75 L 28.25 29 L 23.25 29 L 23.25 16 C 23.25 15.449219 23.699219 15 24.25 15 L 46.375 15 C 46.925781 15 47.375 15.449219 47.375 16 Z M 47.375 16 "/>
<path style=" stroke:none;fill-rule:nonzero;fill:rgb(81.960785%,90.588236%,100%);fill-opacity:1;" d="M 38.75 15 L 38.75 21.523438 C 38.75 22.230469 38.035156 22.714844 37.378906 22.453125 L 35.675781 21.769531 C 35.441406 21.675781 35.179688 21.675781 34.945312 21.765625 L 33.109375 22.476562 C 32.453125 22.726562 31.75 22.246094 31.75 21.542969 L 31.75 15 Z M 38.75 15 "/>
<path style=" stroke:none;fill-rule:nonzero;fill:rgb(90.980393%,95.294118%,100%);fill-opacity:1;" d="M 38.75 15 L 38.75 17.75 C 38.75 18.300781 38.300781 18.75 37.75 18.75 L 32.75 18.75 C 32.199219 18.75 31.75 18.300781 31.75 17.75 L 31.75 15 Z M 38.75 15 "/>
<path style=" stroke:none;fill-rule:nonzero;fill:rgb(81.960785%,90.588236%,100%);fill-opacity:1;" d="M 31.75 30 L 31.75 32.75 L 10.125 32.75 C 9.574219 32.75 9.125 33.199219 9.125 33.75 L 9.125 59 L 5.125 59 C 4.574219 59 4.125 58.550781 4.125 58 L 4.125 30 C 4.125 29.449219 4.574219 29 5.125 29 L 30.75 29 C 31.300781 29 31.75 29.449219 31.75 30 Z M 31.75 30 "/>
<path style=" stroke:none;fill-rule:nonzero;fill:rgb(81.960785%,90.588236%,100%);fill-opacity:1;" d="M 21.375 29 L 21.375 35.523438 C 21.375 36.230469 20.660156 36.714844 20.003906 36.453125 L 18.300781 35.769531 C 18.066406 35.675781 17.804688 35.675781 17.570312 35.765625 L 15.734375 36.476562 C 15.078125 36.726562 14.375 36.246094 14.375 35.542969 L 14.375 29 Z M 21.375 29 "/>
<path style=" stroke:none;fill-rule:nonzero;fill:rgb(90.980393%,95.294118%,100%);fill-opacity:1;" d="M 21.375 29 L 21.375 31.75 C 21.375 32.300781 20.925781 32.75 20.375 32.75 L 15.375 32.75 C 14.824219 32.75 14.375 32.300781 14.375 31.75 L 14.375 29 Z M 21.375 29 "/>
<path style=" stroke:none;fill-rule:nonzero;fill:rgb(63.529414%,81.568629%,100%);fill-opacity:1;" d="M 23.25 16 L 23.25 26 L 30.75 26 C 32.609375 26 34.179688 27.277344 34.625 29 C 34.832031 29.816406 34.722656 29.855469 34.746094 35.996094 C 34.746094 36.546875 34.296875 37 33.746094 37 L 31.75 37 L 31.75 30 C 31.75 29.449219 31.300781 29 30.75 29 L 13.75 29 C 13.199219 29 12.75 28.550781 12.75 28 L 12.75 27 C 12.75 26.449219 13.199219 26 13.75 26 L 20.25 26 L 20.25 16 C 20.25 13.792969 22.042969 12 24.25 12 L 38.375 12 C 38.925781 12 39.375 12.449219 39.375 13 L 39.375 15 L 24.25 15 C 23.699219 15 23.25 15.449219 23.25 16 Z M 23.25 16 "/>
<path style=" stroke:none;fill-rule:nonzero;fill:rgb(18.039216%,34.509805%,100%);fill-opacity:1;" d="M 55.875 36 L 32.75 36 L 32.75 29 C 32.75 28.449219 32.300781 28 31.75 28 L 13.75 28 L 13.75 2 L 28.5 2 L 28.5 7.667969 L 26.296875 6.816406 C 26.0625 6.726562 25.800781 6.726562 25.566406 6.820312 L 23.5 7.648438 L 23.5 5.59375 C 23.5 5.039062 23.050781 4.59375 22.5 4.59375 C 21.949219 4.59375 21.5 5.039062 21.5 5.59375 L 21.5 9.125 C 21.5 9.832031 22.214844 10.316406 22.871094 10.054688 L 25.945312 8.824219 L 29.140625 10.058594 C 29.792969 10.308594 30.5 9.828125 30.5 9.125 L 30.5 2 L 38.375 2 L 38.375 9.898438 C 38.375 10.453125 38.824219 10.898438 39.375 10.898438 C 39.925781 10.898438 40.375 10.453125 40.375 9.898438 L 40.375 1 C 40.375 0.449219 39.925781 0 39.375 0 L 12.75 0 C 12.199219 0 11.75 0.449219 11.75 1 L 11.75 29 C 11.75 29.550781 12.199219 30 12.75 30 L 20.375 30 L 20.375 35.523438 L 18.308594 34.695312 C 18.074219 34.601562 17.8125 34.601562 17.578125 34.691406 L 15.375 35.542969 L 15.375 33.949219 C 15.375 33.394531 14.925781 32.949219 14.375 32.949219 C 13.824219 32.949219 13.375 33.394531 13.375 33.949219 L 13.375 37 C 13.375 37.699219 14.078125 38.1875 14.734375 37.933594 L 17.929688 36.699219 L 21.003906 37.929688 C 21.65625 38.191406 22.375 37.707031 22.375 37 L 22.375 30 L 30.75 30 C 30.75 31.355469 30.75 56.351562 30.75 58 L 5.125 58 L 5.125 30 L 7.171875 30 C 7.726562 30 8.171875 29.550781 8.171875 29 C 8.171875 28.449219 7.726562 28 7.171875 28 L 4.125 28 C 3.574219 28 3.125 28.449219 3.125 29 L 3.125 59 C 3.125 59.550781 3.574219 60 4.125 60 C 7.019531 60 54.382812 60 55.875 60 C 56.425781 60 56.875 59.550781 56.875 59 L 56.875 37 C 56.875 36.449219 56.425781 36 55.875 36 Z M 54.875 58 L 32.75 58 L 32.75 38 L 39.375 38 L 39.375 45 C 39.375 45.550781 39.824219 46 40.375 46 C 40.640625 46 40.507812 46.019531 43.929688 44.699219 L 47.003906 45.929688 C 47.660156 46.191406 48.375 45.707031 48.375 45 L 48.375 41 C 48.375 40.449219 47.925781 40 47.375 40 C 46.824219 40 46.375 40.449219 46.375 41 L 46.375 43.523438 L 44.308594 42.695312 C 44.074219 42.601562 43.8125 42.601562 43.578125 42.691406 L 41.375 43.542969 L 41.375 38 L 54.875 38 Z M 54.875 58 "/>
<path style=" stroke:none;fill-rule:nonzero;fill:rgb(18.039216%,34.509805%,100%);fill-opacity:1;" d="M 23.25 14 C 22.699219 14 22.25 14.449219 22.25 15 L 22.25 24.964844 C 22.25 25.515625 22.699219 25.964844 23.25 25.964844 C 23.800781 25.964844 24.25 25.515625 24.25 24.964844 L 24.25 16 L 30.75 16 L 30.75 23 C 30.75 23.699219 31.453125 24.1875 32.109375 23.933594 L 35.304688 22.699219 L 38.378906 23.929688 C 39.035156 24.191406 39.75 23.707031 39.75 23 L 39.75 19 C 39.75 18.449219 39.300781 18 38.75 18 C 38.199219 18 37.75 18.449219 37.75 19 L 37.75 21.523438 L 35.683594 20.695312 C 35.449219 20.601562 35.1875 20.601562 34.953125 20.691406 L 32.75 21.542969 L 32.75 16 L 46.375 16 L 46.375 31.542969 C 46.375 32.097656 46.824219 32.542969 47.375 32.542969 C 47.925781 32.542969 48.375 32.097656 48.375 31.542969 L 48.375 15 C 48.375 14.449219 47.925781 14 47.375 14 Z M 23.25 14 "/>
</g>
</svg>
