<svg width="60" height="60" viewBox="0 0 100 100" fill="none" xmlns="http://www.w3.org/2000/svg">
<path fill-rule="evenodd" clip-rule="evenodd" d="M42.8571 0H57.1429C80.8122 0 100 19.1874 100 42.8572V57.1429C100 80.812 80.8122 100 57.1429 100H42.8571C19.1878 100 0 80.812 0 57.1429V42.8572C0 19.1874 19.1878 0 42.8571 0Z" fill="url(#paint0_linear)"/>
<path d="M39.6904 39.6941C39.127 40.6446 39.4406 41.8709 40.3911 42.4343L59.3165 53.6518C60.2671 54.2152 61.4933 53.9016 62.0567 52.9511L66.9096 44.7636C65.191 44.8586 63.4282 44.4631 61.8363 43.5207L61.3254 44.3826L59.4873 43.2931C58.1569 44.9806 56.4076 45.5014 54.7899 44.6297L55.9531 42.6673C56.7949 43.0396 57.7693 42.5449 58.4465 41.4025C58.6178 41.1135 58.7325 40.8279 58.8006 40.5521C58.4422 39.9782 58.1484 39.3702 57.9287 38.7366C57.4081 38.6303 56.8364 38.9608 56.0506 39.8099L55.0329 40.914C53.6152 42.4626 52.1822 42.7821 50.7035 41.9056C49.1292 40.9726 48.6717 39.2214 49.4208 37.3242L47.5625 36.2228L48.5823 34.5023L50.4372 35.6017C51.7072 34.0807 53.4701 33.5902 54.992 34.4213L53.8597 36.3317C53.0377 35.9711 52.1045 36.3818 51.5232 37.3625C50.9215 38.3776 50.9941 39.3284 51.7331 39.7664C52.3309 40.1208 52.9492 39.8602 53.864 38.868L54.8058 37.846C55.7355 36.8324 56.5853 36.3114 57.4369 36.2337C57.3489 34.525 57.7432 32.7714 58.6814 31.1885C58.8537 30.8978 59.0421 30.6223 59.2417 30.3582L50.6426 25.2613C49.7006 24.703 48.4838 25.0065 47.9143 25.9419L39.6904 39.6941ZM60.4019 32.2083C58.4306 35.534 59.5287 39.828 62.8544 41.7992C66.1801 43.7704 70.474 42.6724 72.4453 39.3467C74.4165 36.021 73.3184 31.727 69.9927 29.7558C66.6671 27.7846 62.3731 28.8826 60.4019 32.2083ZM62.9826 33.738C63.264 33.2631 63.877 33.1056 64.3527 33.3876L66.0732 34.4074L67.093 32.6869C67.3744 32.212 67.9874 32.0546 68.4631 32.3365C68.9388 32.6185 69.0949 33.2318 68.8135 33.7067L67.7937 35.4271L69.5142 36.4469C69.9899 36.7289 70.146 37.3422 69.8645 37.817C69.5831 38.2919 68.9701 38.4494 68.4944 38.1674L66.7739 37.1476L65.7541 38.8681C65.4727 39.343 64.8597 39.5004 64.384 39.2185C63.9083 38.9365 63.7522 38.3232 64.0337 37.8484L65.0534 36.1279L63.3329 35.1081C62.8572 34.8261 62.7011 34.2128 62.9826 33.738Z" fill="white"/>
<path d="M27.7646 50.0001C27.534 49.9975 27.3051 50.0318 27.0912 50.101C26.8773 50.1701 26.6825 50.2729 26.5184 50.4031C26.3542 50.5334 26.2238 50.6886 26.1348 50.8598C26.0458 51.0309 26 51.2146 26 51.4001C26 51.5857 26.0458 51.7694 26.1348 51.9405C26.2238 52.1117 26.3542 52.2669 26.5184 52.3972C26.6825 52.5274 26.8773 52.6301 27.0912 52.6993C27.3051 52.7685 27.534 52.8028 27.7646 52.8001H31.0335C31.4265 52.8001 31.7545 52.9982 31.866 53.3033L39.2805 73.5868C39.9313 75.3672 41.9777 76.6 44.2858 76.6H63.3216C65.7074 76.6 67.8062 75.2817 68.3847 73.42V73.4172L72.9483 58.7392C73.0123 58.5327 73.0169 58.3173 72.962 58.1092C72.907 57.9011 72.7938 57.7058 72.631 57.5381C72.4682 57.3705 72.2601 57.2349 72.0224 57.1417C71.7848 57.0485 71.5238 57 71.2594 57.0001H36.8441L35.2063 52.513H35.2029C34.6602 51.0289 32.9544 50.0001 31.0335 50.0001H27.7646ZM53.8615 59.8001C54.8219 59.8001 55.6013 60.4259 55.6013 61.2001V65.4001H60.8207C61.781 65.4001 62.5605 66.0259 62.5605 66.8001C62.5605 67.5743 61.781 68.2001 60.8207 68.2001H55.6013V72.4001C55.6013 73.1742 54.8219 73.8 53.8615 73.8C52.9011 73.8 52.1217 73.1742 52.1217 72.4001V68.2001H46.9023C45.9419 68.2001 45.1625 67.5743 45.1625 66.8001C45.1625 66.0259 45.9419 65.4001 46.9023 65.4001H52.1217V61.2001C52.1217 60.4259 52.9011 59.8001 53.8615 59.8001ZM45.1625 79.4C44.2397 79.4 43.3546 79.695 42.7021 80.2201C42.0495 80.7452 41.6829 81.4574 41.6829 82.2C41.6829 82.9426 42.0495 83.6548 42.7021 84.1799C43.3546 84.705 44.2397 85 45.1625 85C46.0854 85 46.9704 84.705 47.623 84.1799C48.2755 83.6548 48.6421 82.9426 48.6421 82.2C48.6421 81.4574 48.2755 80.7452 47.623 80.2201C46.9704 79.695 46.0854 79.4 45.1625 79.4ZM62.5605 79.4C61.6376 79.4 60.7526 79.695 60.1 80.2201C59.4475 80.7452 59.0809 81.4574 59.0809 82.2C59.0809 82.9426 59.4475 83.6548 60.1 84.1799C60.7526 84.705 61.6376 85 62.5605 85C63.4833 85 64.3683 84.705 65.0209 84.1799C65.6734 83.6548 66.04 82.9426 66.04 82.2C66.04 81.4574 65.6734 80.7452 65.0209 80.2201C64.3683 79.695 63.4833 79.4 62.5605 79.4Z" fill="#FEFEFE"/>
<defs>
<linearGradient id="paint0_linear" x1="57.7332" y1="160.59" x2="160.59" y2="42.2674" gradientUnits="userSpaceOnUse">
<stop stop-color="#78FF0D"/>
<stop offset="1" stop-color="#00B0FF"/>
</linearGradient>
</defs>
</svg>
