<svg width="60" height="60" viewBox="0 0 100 100" fill="none" xmlns="http://www.w3.org/2000/svg">
<path fill-rule="evenodd" clip-rule="evenodd" d="M42.8571 0H57.1429C80.8122 0 100 19.1874 100 42.8572V57.1429C100 80.812 80.8122 100 57.1429 100H42.8571C19.1878 100 0 80.812 0 57.1429V42.8572C0 19.1874 19.1878 0 42.8571 0Z" fill="url(#paint0_linear)"/>
<path d="M32.5 26C32.2154 26 31.9593 26.0804 31.7411 26.25L24.7589 31.7143H48.2857V26H32.5ZM50.7143 26V31.7143H74.2411L67.2969 26.25C67.0787 26.0804 66.7846 26 66.5 26H50.7143ZM24 34V72.8571C24 73.4911 24.5455 74 25.2143 74H73.7857C74.4593 74 75 73.4911 75 72.8571V34H24ZM45.25 39.7143H53.75C54.7224 39.7143 55.5714 40.5134 55.5714 41.4286C55.5714 42.3438 54.7224 43.1429 53.75 43.1429H45.25C44.2776 43.1429 43.4286 42.3438 43.4286 41.4286C43.4286 40.5134 44.2776 39.7143 45.25 39.7143ZM56.7857 56.8571L60.4286 60.2857H58V64.8571H55.5714V60.2857H53.1429L56.7857 56.8571ZM65.2857 56.8571L68.9286 60.2857H66.5V64.8571H64.0714V60.2857H61.6429L65.2857 56.8571ZM53.1429 66H68.9286V68.2857H53.1429V66Z" fill="white"/>
<defs>
<linearGradient id="paint0_linear" x1="57.7332" y1="160.59" x2="160.59" y2="42.2674" gradientUnits="userSpaceOnUse">
<stop stop-color="#EF19FF"/>
<stop offset="1" stop-color="#EF19FF"/>
</linearGradient>
</defs>
</svg>
