<svg width="60" height="60" viewBox="0 0 100 100" fill="none" xmlns="http://www.w3.org/2000/svg">
<path fill-rule="evenodd" clip-rule="evenodd" d="M42.8571 0H57.1429C80.8122 0 100 19.1874 100 42.8572V57.1429C100 80.812 80.8122 100 57.1429 100H42.8571C19.1878 100 0 80.812 0 57.1429V42.8572C0 19.1874 19.1878 0 42.8571 0Z" fill="url(#paint0_linear)"/>
<path d="M49.5 24C43.0299 24 40.35 29.6933 40.35 36.5526C40.35 38.8623 41.1562 41.1836 41.1562 41.1836C40.8329 41.4402 40.2952 42.2558 40.4294 43.6952C40.6795 46.3787 41.5287 47.0554 42.0696 47.1112C42.275 49.6162 44.2398 52.8236 44.925 53.2895V57.0324C43.4 63.3087 31.2 62.3553 31.2 77H67.8C67.8 62.3553 55.6 63.3087 54.075 57.0324V53.2895C54.7623 52.8236 56.725 49.6162 56.9304 47.1112C57.4713 47.0554 58.3205 46.3787 58.5706 43.6952C58.7048 42.2531 58.1671 41.4402 57.8438 41.1836C57.8438 41.1836 58.65 39.0883 58.65 36.5526C58.65 31.473 57.1962 27.1382 54.075 27.1382C54.075 27.1382 52.9912 24 49.5 24ZM64.75 29.5735C63.7089 29.5735 62.8231 29.8318 62.0098 30.2C62.4551 32.0941 62.7167 34.2067 62.7167 36.5526C62.7167 38.0366 62.547 39.3972 62.3314 40.5353C62.6263 41.7319 62.7276 43.0479 62.6015 44.398C62.3148 47.4692 61.4456 49.5566 60.3537 50.8705C60.0365 51.9249 59.6022 52.9239 59.1345 53.8779C59.712 55.5041 60.5573 56.952 60.9375 57.2449V57.2775C65.0794 59.9415 71.8667 64.4195 71.8667 77H80C80 63.1698 69.8333 65.1556 68.5625 59.228V57.2394C69.1339 56.7987 70.7705 53.7699 70.9413 51.4044C71.3907 51.3514 72.1001 50.7147 72.3075 48.1791C72.4193 46.8178 71.9722 46.0518 71.7038 45.8091C71.7038 45.8091 72.375 43.8248 72.375 41.4342C72.375 36.6363 71.1631 32.5428 68.5625 32.5428C68.5625 32.5428 67.6597 29.5735 64.75 29.5735ZM34.25 29.5789C31.3403 29.5789 30.4375 32.5428 30.4375 32.5428C27.8369 32.5428 26.625 36.6418 26.625 41.4397C26.625 43.833 27.2962 45.8091 27.2962 45.8091C27.0257 46.049 26.5807 46.8178 26.6925 48.1791C26.8999 50.7147 27.6093 51.3568 28.0587 51.4098C28.2295 53.7753 29.8661 56.8041 30.4375 57.2449V59.228C29.1667 65.1528 19 63.1698 19 77H27.1333C27.1333 64.4195 33.9206 59.9443 38.0625 57.2775V57.2394C38.4427 56.9465 39.288 55.5069 39.8655 53.8779C39.3978 52.9239 38.9635 51.9195 38.6463 50.865C37.5544 49.554 36.6832 47.4664 36.3985 44.398C36.2704 43.0312 36.3756 41.6941 36.6765 40.4862C36.4569 39.3398 36.2833 37.9781 36.2833 36.5526C36.2833 34.2457 36.5214 32.125 36.9545 30.1891C36.1513 29.8293 35.2768 29.5789 34.25 29.5789Z" fill="white"/>
<defs>
<linearGradient id="paint0_linear" x1="57.7332" y1="160.59" x2="160.59" y2="42.2674" gradientUnits="userSpaceOnUse">
<stop stop-color="#0098D2"/>
<stop offset="1" stop-color="#00B0FF"/>
</linearGradient>
</defs>
</svg>
