<svg width="70" height="70" viewBox="0 0 70 70" fill="none" xmlns="http://www.w3.org/2000/svg">
<path fill-rule="evenodd" clip-rule="evenodd" d="M35.4999 16C50.1354 16 62 27.8645 62 42.5C62 57.1354 50.1354 69 35.4999 69C20.8644 69 9 57.1354 9 42.5C9 27.8645 20.8644 16 35.4999 16Z" fill="#FF4361"/>
<path fill-rule="evenodd" clip-rule="evenodd" d="M30 0H40.0001C56.5686 0 70.0001 13.4312 70.0001 30V40C70.0001 56.5683 56.5686 69.9999 40.0001 69.9999H30C13.4315 69.9999 0 56.5683 0 40V30C0 13.4312 13.4315 0 30 0Z" fill="#FF4361"/>
<path fill-rule="evenodd" clip-rule="evenodd" d="M30 0H40.0001C56.5686 0 70.0001 13.4312 70.0001 30V40C70.0001 56.5683 56.5686 69.9999 40.0001 69.9999H30C13.4315 69.9999 0 56.5683 0 40V30C0 13.4312 13.4315 0 30 0Z" fill="url(#paint0_linear)"/>
<path fill-rule="evenodd" clip-rule="evenodd" d="M45.8935 3.02944C45.9555 3.04553 46.0568 3.04553 46.1188 3.02944C46.1807 3.01319 46.13 3 46.0061 3C45.8823 3 45.8316 3.01319 45.8935 3.02944ZM24.8508 3.09379C24.9127 3.10988 25.0141 3.10988 25.076 3.09379C25.138 3.07754 25.0873 3.06435 24.9634 3.06435C24.8395 3.06435 24.7889 3.07754 24.8508 3.09379ZM24.4404 3.22072C24.3596 3.3187 24.3658 3.32079 24.513 3.24421C24.7287 3.13208 24.7449 3.11374 24.6281 3.11374C24.5735 3.11374 24.489 3.16184 24.4404 3.22072ZM20.5382 5.55907C20.5382 5.68295 20.5514 5.73362 20.5676 5.67169C20.5837 5.60975 20.5837 5.5084 20.5676 5.44646C20.5514 5.38452 20.5382 5.4352 20.5382 5.55907ZM14.4742 8.64888C14.4063 8.69328 14.4445 8.69988 14.6029 8.67076C14.8804 8.61976 14.9329 8.58324 14.7263 8.58453C14.6407 8.58501 14.5273 8.61397 14.4742 8.64888ZM14.1448 9.27743C14.1237 9.40516 14.133 9.46533 14.1687 9.42962C14.2012 9.39712 14.217 9.3022 14.2038 9.21838C14.1835 9.08952 14.1745 9.09869 14.1448 9.27743ZM13.3528 9.58567C13.2971 9.64117 13.2524 9.7208 13.2535 9.76263C13.2546 9.8043 13.286 9.78596 13.3233 9.72161C13.3606 9.65742 13.4539 9.57971 13.5305 9.54883C13.6338 9.50716 13.6418 9.49155 13.5619 9.4885C13.5024 9.48624 13.4083 9.53 13.3528 9.58567ZM10.5857 12.3528C10.53 12.4083 10.4862 12.5024 10.4885 12.5619C10.4916 12.6419 10.5072 12.6338 10.5488 12.5305C10.5797 12.4539 10.6574 12.3606 10.7216 12.3233C10.786 12.286 10.8043 12.2546 10.7626 12.2535C10.7208 12.2524 10.6412 12.2971 10.5857 12.3528ZM6.44646 19.5676C6.5084 19.5837 6.60975 19.5837 6.67169 19.5676C6.73362 19.5514 6.68295 19.5382 6.55907 19.5382C6.4352 19.5382 6.38452 19.5514 6.44646 19.5676ZM64.7483 19.5676C64.8103 19.5837 64.9116 19.5837 64.9736 19.5676C65.0355 19.5514 64.9848 19.5382 64.861 19.5382C64.7371 19.5382 64.6864 19.5514 64.7483 19.5676ZM22.3028 21.3141C22.1584 21.4737 22.1637 32.0222 22.3083 32.3475L22.3881 32.5269L27.7606 32.5084L33.1331 32.4899L33.2988 32.3242C33.4566 32.1664 33.4669 32.1117 33.5189 31.1659C33.5488 30.62 33.5933 30.1154 33.6178 30.0446C33.7272 29.7291 33.8249 29.6051 34.0837 29.4534L34.3604 29.2912L34.6009 29.5105C35.0284 29.9004 35.6457 30.5447 35.6457 30.6011C35.6457 30.6313 35.6872 30.6559 35.738 30.6559C35.7888 30.6559 35.9119 30.7713 36.0115 30.9123C36.1111 31.0534 36.2451 31.1863 36.3091 31.2076C36.3733 31.2288 36.4546 31.3089 36.4898 31.3855C36.5252 31.4621 36.6682 31.6062 36.8077 31.7058C36.9472 31.8054 37.0614 31.9284 37.0614 31.9793C37.0614 32.0301 37.0849 32.0716 37.1133 32.0716C37.1594 32.0716 39.0501 33.9225 39.3233 34.2348C39.3815 34.3015 39.4974 34.4158 39.5807 34.4888C39.6639 34.562 39.7754 34.6709 39.8285 34.7311C39.8816 34.7914 40.1052 35.0129 40.3253 35.2235C41.1288 35.992 41.2004 36.0924 41.0928 36.2985C40.824 36.8135 40.624 36.8889 39.3389 36.9591C38.3523 37.0131 38.1504 37.0612 38.0503 37.2662C38.0196 37.3291 37.9863 39.7899 37.9763 42.7344L37.9581 48.0882L38.105 48.1721C38.3823 48.3304 49.0385 48.3284 49.1819 48.17C49.3287 48.0078 49.3204 37.3648 49.1732 37.1071L49.0905 36.9623L46.2774 36.9618C42.6641 36.9612 42.5285 36.9396 42.2074 36.3133L42.089 36.0826L42.3768 35.7824C42.5349 35.6174 42.6913 35.4822 42.7243 35.4822C42.7571 35.4822 42.8502 35.3855 42.9311 35.2675C43.0121 35.1495 43.2804 34.8738 43.5277 34.6548C43.7749 34.4359 43.9979 34.2012 44.023 34.1333C44.0481 34.0652 44.1499 33.9573 44.249 33.8932C44.4513 33.7629 44.8443 33.3693 45.088 33.053C45.1767 32.938 45.2867 32.8438 45.3327 32.8438C45.3786 32.8438 45.5087 32.727 45.6218 32.5842C45.8823 32.2554 46.1255 32.0121 46.4544 31.7516C46.5972 31.6385 46.714 31.5084 46.714 31.4625C46.714 31.4165 46.8081 31.3065 46.9231 31.2179C47.2391 30.9744 47.6331 30.5813 47.7631 30.3795C47.8268 30.2806 47.9444 30.1749 48.024 30.1446C48.3363 30.0259 48.5158 29.6754 48.5158 29.1847V28.7344L48.2208 28.4886C48.0586 28.3534 47.8776 28.1892 47.8186 28.1239C47.7597 28.0584 47.5522 27.8481 47.3575 27.6567C46.9227 27.2287 46.9236 27.2297 46.4957 26.7949C46.3043 26.6002 46.098 26.3935 46.0375 26.3354C45.9148 26.2178 44.3025 24.6066 44.1699 24.4692C44.0393 24.3338 43.3454 23.641 43.2555 23.5564C43.2114 23.5147 42.8462 23.1405 42.4438 22.7247L41.7123 21.9685H41.2558C40.7632 21.9685 40.8042 21.9446 40.2146 22.5767C40.1615 22.6336 39.9715 22.8168 39.7923 22.984C39.613 23.151 39.4012 23.3819 39.3212 23.4969C39.2414 23.6119 39.1357 23.706 39.0863 23.706C39.0369 23.706 38.8515 23.8804 38.674 24.0936C38.4966 24.3069 38.1771 24.6264 37.9637 24.8038C37.7506 24.9813 37.5762 25.1668 37.5762 25.2162C37.5762 25.2656 37.4821 25.3713 37.367 25.4511C37.252 25.531 37.0212 25.7429 36.8542 25.9221C36.687 26.1013 36.5038 26.2913 36.447 26.3444C36.1354 26.6356 35.7222 27.0622 35.582 27.2379C35.494 27.3481 35.3883 27.4384 35.3471 27.4384C35.3059 27.4384 35.1897 27.5407 35.0889 27.6657C34.5441 28.3414 34.3757 28.4337 34.0469 28.2373C33.5583 27.9458 33.5232 27.6758 33.5226 24.207L33.5221 21.3939L33.3773 21.3112C33.1015 21.1537 22.4455 21.1564 22.3028 21.3141ZM4 24.4139C4 24.5378 4.01319 24.5884 4.02944 24.5265C4.04553 24.4646 4.04553 24.3632 4.02944 24.3013C4.01319 24.2393 4 24.29 4 24.4139ZM22.3125 37.1047C22.1638 37.3651 22.1545 48.0065 22.3028 48.1703C22.4463 48.3289 33.1015 48.3305 33.3794 48.1721L33.5263 48.0882L33.5081 42.7344C33.4888 37.0591 33.496 37.1928 33.2018 37.044C33.1479 37.0167 30.6947 36.9861 27.7501 36.976L22.3965 36.9575L22.3125 37.1047ZM9.58453 55.6937C9.58501 55.7793 9.61397 55.8927 9.64888 55.9458C9.69328 56.0137 9.69988 55.9756 9.67076 55.8171C9.61976 55.5396 9.58324 55.4871 9.58453 55.6937ZM20.5382 63.861C20.5382 63.9848 20.5514 64.0355 20.5676 63.9736C20.5837 63.9116 20.5837 63.8103 20.5676 63.7483C20.5514 63.6864 20.5382 63.7371 20.5382 63.861Z" fill="#FBFBFB"/>
<defs>
<linearGradient id="paint0_linear" x1="40.4133" y1="112.413" x2="112.413" y2="29.5869" gradientUnits="userSpaceOnUse">
<stop stop-color="#0098D2"/>
<stop offset="1" stop-color="#00B0FF"/>
</linearGradient>
</defs>
</svg>
