<svg width="70" height="70" viewBox="0 0 70 70" fill="none" xmlns="http://www.w3.org/2000/svg">
<path fill-rule="evenodd" clip-rule="evenodd" d="M30.0001 0H40C56.5686 0 70 13.4312 70 30V40C70 56.5683 56.5686 69.9999 40 69.9999H30.0001C13.4316 69.9999 0 56.5683 0 40V30C0 13.4312 13.4316 0 30.0001 0Z" fill="url(#paint0_linear)"/>
<path fill-rule="evenodd" clip-rule="evenodd" d="M44.9475 30.0038C44.8558 29.7984 44.6585 29.6667 44.4412 29.6667H37.8192L44.3546 18.8952C44.4635 18.7156 44.4701 18.4882 44.3718 18.3027C44.2735 18.1156 44.0857 18 43.8823 18H34.9412C34.7295 18 34.5361 18.1248 34.4411 18.3226L26.0589 35.8226C25.9723 36.0033 25.9818 36.2178 26.0834 36.3898C26.1857 36.5619 26.365 36.6662 26.559 36.6662H32.3053L26.0438 52.1903C25.937 52.4559 26.032 52.7635 26.2673 52.9145C26.3577 52.9715 26.4583 53 26.5584 53C26.7187 53 26.8769 52.928 26.9864 52.793L44.8686 30.6264C45.0089 30.4527 45.039 30.2097 44.9475 30.0038Z" fill="white"/>
<defs>
<linearGradient id="paint0_linear" x1="40.4133" y1="112.413" x2="112.413" y2="29.5869" gradientUnits="userSpaceOnUse">
<stop stop-color="#0098D2"/>
<stop offset="1" stop-color="#00B0FF"/>
</linearGradient>
</defs>
</svg>
