<svg width="70" height="70" viewBox="0 0 70 70" fill="none" xmlns="http://www.w3.org/2000/svg">
<path fill-rule="evenodd" clip-rule="evenodd" d="M30 0H40.0001C56.5686 0 70.0001 13.4312 70.0001 30V40C70.0001 56.5683 56.5686 69.9999 40.0001 69.9999H30C13.4315 69.9999 0 56.5683 0 40V30C0 13.4312 13.4315 0 30 0Z" fill="url(#paint0_linear)"/>
<path d="M16 20V24.325H22.3625V20H16ZM23.1864 20V24.325H48.952V22.5242H37.1472C36.9197 22.5242 36.7353 22.3622 36.7353 22.1625C36.7353 21.9628 36.9197 21.8008 37.1472 21.8008H48.952V20H23.1864ZM24.9303 21.5315H26.3677V22.7935H24.9303V21.5315ZM27.0863 21.5315H28.5235V22.7935H27.0863V21.5315ZM29.2421 21.5315H30.6794V22.7935H29.2421V21.5315ZM16 25.0485V48.9362H38.2426V47.1354H18.4626C18.2352 47.1354 18.0509 46.9734 18.0509 46.7736V27.211C18.0509 27.0113 18.2352 26.8492 18.4626 26.8492H46.4894C46.7169 26.8492 46.9013 27.0113 46.9013 27.211V32.5939H48.952V25.0485H16ZM18.8746 27.5726V46.4118H38.2426V41.702H27.945C27.7176 41.702 27.5332 41.5401 27.5332 41.3403C27.5332 41.1405 27.7176 40.9786 27.945 40.9786H38.2426V38.8085H27.945C27.7176 38.8085 27.5332 38.6466 27.5332 38.4468C27.5332 38.2471 27.7176 38.085 27.945 38.085H38.2426V35.9148H29.5927C29.3653 35.9148 29.1808 35.7528 29.1808 35.5531C29.1808 35.3534 29.3653 35.1915 29.5927 35.1915H38.2426V35.1215V35.0781C38.2427 33.7082 39.5117 32.5937 41.0718 32.5937H46.0775V27.5726H18.8746ZM21.3546 29.4043H25.4736C25.7011 29.4043 25.8855 29.5663 25.8855 29.766C25.8855 29.9657 25.7012 30.1277 25.4736 30.1277H21.3546C21.1272 30.1277 20.9428 29.9657 20.9428 29.766C20.9428 29.5663 21.1272 29.4043 21.3546 29.4043ZM27.945 29.4043H41.1258C41.3533 29.4043 41.5377 29.5663 41.5377 29.766C41.5377 29.9657 41.3533 30.1277 41.1258 30.1277H27.945C27.7176 30.1277 27.5332 29.9657 27.5332 29.766C27.5332 29.5663 27.7176 29.4043 27.945 29.4043ZM21.3546 32.2979H25.4736C25.7011 32.2979 25.8855 32.4598 25.8855 32.6595C25.8855 32.8593 25.7012 33.0213 25.4736 33.0213H21.3546C21.1272 33.0213 20.9428 32.8593 20.9428 32.6595C20.9428 32.4598 21.1272 32.2979 21.3546 32.2979ZM27.945 32.2979H35.3593C35.5867 32.2979 35.7712 32.4598 35.7712 32.6595C35.7712 32.8593 35.5868 33.0213 35.3593 33.0213H27.945C27.7176 33.0213 27.5332 32.8593 27.5332 32.6595C27.5332 32.4598 27.7176 32.2979 27.945 32.2979ZM41.0718 33.3172C39.966 33.3172 39.0663 34.1266 39.0663 35.1215V46.7736V49.2979V50.0017H53.9998V35.1215C53.9999 34.1265 53.1004 33.3172 51.9945 33.3172H49.3638H46.4894H41.0718ZM21.3546 35.1915H25.4736C25.7011 35.1915 25.8855 35.3535 25.8855 35.5532C25.8855 35.7529 25.7012 35.915 25.4736 35.915H21.3546C21.1272 35.915 20.9428 35.7529 20.9428 35.5532C20.9428 35.3535 21.1272 35.1915 21.3546 35.1915ZM41.9497 38.085H45.2448C45.4723 38.085 45.6567 38.2471 45.6567 38.4468C45.6567 38.6466 45.4723 38.8085 45.2448 38.8085H41.9497C41.7222 38.8085 41.5377 38.6466 41.5377 38.4468C41.5377 38.2471 41.7222 38.085 41.9497 38.085ZM21.3546 38.0852H25.4736C25.7011 38.0852 25.8855 38.2471 25.8855 38.4468C25.8856 38.6466 25.7012 38.8085 25.4736 38.8085H21.3546C21.1272 38.8085 20.9428 38.6466 20.9428 38.4468C20.9428 38.2471 21.1272 38.0852 21.3546 38.0852ZM21.3546 40.9787H25.4736C25.7011 40.9787 25.8855 41.1407 25.8855 41.3405C25.8855 41.5403 25.7012 41.702 25.4736 41.702H21.3546C21.1272 41.702 20.9428 41.5403 20.9428 41.3405C20.9428 41.1407 21.1272 40.9787 21.3546 40.9787ZM41.9497 40.9787H44.4211C44.6485 40.9787 44.8329 41.1407 44.8329 41.3405C44.8329 41.5403 44.6485 41.702 44.4211 41.702H41.9497C41.7222 41.702 41.5377 41.5403 41.5377 41.3405C41.5377 41.1407 41.7222 40.9787 41.9497 40.9787ZM46.8925 40.9787H51.0115C51.2389 40.9787 51.4234 41.1407 51.4234 41.3405C51.4234 41.5403 51.2389 41.702 51.0115 41.702H46.8925C46.665 41.702 46.4806 41.5403 46.4806 41.3405C46.4806 41.1407 46.665 40.9787 46.8925 40.9787ZM41.9497 43.8723H44.4211C44.6485 43.8723 44.8329 44.0342 44.8329 44.234C44.8329 44.4338 44.6485 44.5957 44.4211 44.5957H41.9497C41.7222 44.5957 41.5377 44.4338 41.5377 44.234C41.5377 44.0342 41.7222 43.8723 41.9497 43.8723ZM47.7164 43.8723H51.0115C51.2389 43.8723 51.4234 44.0342 51.4234 44.234C51.4234 44.4338 51.2389 44.5957 51.0115 44.5957H47.7164C47.4889 44.5957 47.3045 44.4338 47.3045 44.234C47.3045 44.0342 47.4889 43.8723 47.7164 43.8723ZM41.9497 46.766H49.3638C49.5913 46.766 49.7757 46.9279 49.7757 47.1277C49.7757 47.3275 49.5913 47.4894 49.3638 47.4894H41.9497C41.7222 47.4894 41.5377 47.3275 41.5377 47.1277C41.5377 46.9279 41.7222 46.766 41.9497 46.766ZM39.0665 50.7252V52.1959C39.0665 53.1906 39.9661 54 41.0719 54H51.9945C53.1004 54 54 53.1906 54 52.1959V50.7252H39.0665ZM46.8438 51.5534C47.272 51.5534 47.6192 51.8582 47.6192 52.2342C47.6192 52.6102 47.272 52.915 46.8438 52.915C46.4157 52.915 46.0687 52.6102 46.0687 52.2342C46.0687 51.8582 46.4157 51.5534 46.8438 51.5534Z" fill="white"/>
<defs>
<linearGradient id="paint0_linear" x1="40.4133" y1="112.413" x2="112.413" y2="29.5869" gradientUnits="userSpaceOnUse">
<stop stop-color="#0098D2"/>
<stop offset="1" stop-color="#00B0FF"/>
</linearGradient>
</defs>
</svg>
