<svg width="70" height="70" viewBox="0 0 70 70" fill="none" xmlns="http://www.w3.org/2000/svg">
<path fill-rule="evenodd" clip-rule="evenodd" d="M54.1391 21.2226C54.1436 21.3035 54.1377 21.3857 54.1175 21.4682L52.3107 28.7247C52.2195 29.0899 51.8932 29.3474 51.5181 29.3495L40.6774 29.4045C40.676 29.4045 40.6747 29.4045 40.6732 29.4045H29.8325C29.4553 29.4045 29.1267 29.1461 29.0357 28.7788L27.2289 21.4946C27.208 21.4103 27.2021 21.3256 27.2073 21.2426C26.5083 21.0218 26 20.365 26 19.5912C26 18.6357 26.7736 17.8589 27.7246 17.8589C28.6756 17.8589 29.4493 18.6357 29.4493 19.5912C29.4493 20.1288 29.2038 20.6097 28.8196 20.9281L31.0817 23.2163C31.6534 23.7947 32.4467 24.1267 33.2583 24.1267C34.218 24.1267 35.133 23.6687 35.7092 22.9022L39.4269 17.9559C39.1146 17.6427 38.9211 17.2098 38.9211 16.7323C38.9211 15.7772 39.6948 15 40.6458 15C41.5968 15 42.3704 15.7772 42.3704 16.7323C42.3704 17.1954 42.1873 17.6154 41.8913 17.9266C41.8923 17.9279 41.8936 17.9291 41.8945 17.9304L45.5851 22.8902C46.1612 23.664 47.0794 24.1267 48.0418 24.1267C48.8609 24.1267 49.6312 23.8062 50.2103 23.2248L52.4866 20.9387C52.0943 20.6208 51.8423 20.1356 51.8423 19.5912C51.8423 18.6357 52.616 17.8589 53.567 17.8589C54.518 17.8589 55.2917 18.6357 55.2917 19.5912C55.2917 20.3441 54.8092 20.9851 54.1391 21.2226ZM52.1344 31.988C52.1344 31.533 51.7666 31.1636 51.3131 31.1636H30.0698C29.6162 31.1636 29.2485 31.533 29.2485 31.988V33.9672C29.2485 34.423 29.6162 34.792 30.0698 34.792H51.3131C51.7666 34.792 52.1344 34.423 52.1344 33.9672V31.988Z" fill="white"/>
<path fill-rule="evenodd" clip-rule="evenodd" d="M30 0H40.0001C56.5686 0 70.0001 13.4312 70.0001 30V40C70.0001 56.5683 56.5686 69.9999 40.0001 69.9999H30C13.4315 69.9999 0 56.5683 0 40V30C0 13.4312 13.4315 0 30 0Z" fill="url(#paint0_linear)"/>
<path d="M37.6 18C35.8308 18.002 34.0965 18.5947 32.5886 19.7127C31.0806 20.8306 29.8576 22.4304 29.0547 24.3353C28.3387 23.983 27.5731 23.8012 26.8 23.8C25.3484 23.8022 23.9467 24.4402 22.8547 25.5957C21.7626 26.7512 21.0543 28.3459 20.8609 30.0843C19.444 30.6724 18.2142 31.7799 17.3429 33.2526C16.4716 34.7253 16.0021 36.4897 16 38.3C16 40.6074 16.7586 42.8203 18.1088 44.4518C19.4591 46.0834 21.2904 47 23.2 47H44.8C46.7096 47 48.5409 46.0834 49.8912 44.4518C51.2414 42.8203 52 40.6074 52 38.3C51.9978 36.4984 51.5329 34.7421 50.6693 33.2735C49.8057 31.8049 48.5861 30.6965 47.1789 30.1013C47.1889 29.9344 47.196 29.7673 47.2 29.6C47.2 26.5235 46.1886 23.573 44.3882 21.3976C42.5879 19.2221 40.1461 18 37.6 18Z" fill="white"/>
<defs>
<linearGradient id="paint0_linear" x1="40.4133" y1="112.413" x2="112.413" y2="29.5869" gradientUnits="userSpaceOnUse">
<stop stop-color="#0098D2"/>
<stop offset="1" stop-color="#00B0FF"/>
</linearGradient>
</defs>
</svg>
