<svg width="110" height="111" viewBox="0 0 110 111" fill="none" xmlns="http://www.w3.org/2000/svg">
<g filter="url(#filter0_d)">
<path fill-rule="evenodd" clip-rule="evenodd" d="M49.9997 6.99868H59.9997C76.5682 6.99868 89.9997 20.4299 89.9997 36.9986V46.9986C89.9997 63.5669 76.5682 76.9986 59.9997 76.9986H49.9997C33.4312 76.9986 19.9997 63.5669 19.9997 46.9986V36.9986C19.9997 20.4299 33.4312 6.99868 49.9997 6.99868Z" fill="white"/>
</g>
<path d="M47.0898 55.2987C45.4098 55.2987 43.9898 54.8387 42.8298 53.9187C41.6898 52.9787 40.8298 51.6987 40.2498 50.0787C39.6698 48.4587 39.3798 46.5987 39.3798 44.4987C39.3798 42.3987 39.6698 40.5387 40.2498 38.9187C40.8298 37.2987 41.6898 36.0287 42.8298 35.1087C43.9898 34.1687 45.4098 33.6987 47.0898 33.6987C48.7898 33.6987 50.2098 34.1687 51.3498 35.1087C52.4898 36.0287 53.3498 37.2987 53.9298 38.9187C54.5298 40.5387 54.8298 42.3987 54.8298 44.4987C54.8298 46.5987 54.5298 48.4587 53.9298 50.0787C53.3498 51.6987 52.4898 52.9787 51.3498 53.9187C50.2098 54.8387 48.7898 55.2987 47.0898 55.2987ZM47.0898 52.3587C48.5298 52.3587 49.6498 51.6787 50.4498 50.3187C51.2698 48.9587 51.6798 47.0187 51.6798 44.4987C51.6798 41.9787 51.2698 40.0387 50.4498 38.6787C49.6498 37.3187 48.5298 36.6387 47.0898 36.6387C45.6498 36.6387 44.5198 37.3187 43.6998 38.6787C42.8998 40.0387 42.4998 41.9787 42.4998 44.4987C42.4998 47.0187 42.8998 48.9587 43.6998 50.3187C44.5198 51.6787 45.6498 52.3587 47.0898 52.3587ZM69.4224 54.9987H59.4024V51.8787H62.7324V37.9287L59.7024 39.5187L58.8324 36.6987L64.4424 33.6987H66.0024V51.8787H69.4224V54.9987Z" fill="#00B0FF"/>
<defs>
<filter id="filter0_d" x="-0.000305176" y="0.998688" width="110" height="110" filterUnits="userSpaceOnUse" color-interpolation-filters="sRGB">
<feFlood flood-opacity="0" result="BackgroundImageFix"/>
<feColorMatrix in="SourceAlpha" type="matrix" values="0 0 0 0 0 0 0 0 0 0 0 0 0 0 0 0 0 0 127 0" result="hardAlpha"/>
<feOffset dy="14"/>
<feGaussianBlur stdDeviation="10"/>
<feColorMatrix type="matrix" values="0 0 0 0 0.296285 0 0 0 0 0.468577 0 0 0 0 0.670833 0 0 0 0.1 0"/>
<feBlend mode="normal" in2="BackgroundImageFix" result="effect1_dropShadow"/>
<feBlend mode="normal" in="SourceGraphic" in2="effect1_dropShadow" result="shape"/>
</filter>
</defs>
</svg>
