<svg width="110" height="111" viewBox="0 0 110 111" fill="none" xmlns="http://www.w3.org/2000/svg">
<g filter="url(#filter0_d)">
<path fill-rule="evenodd" clip-rule="evenodd" d="M50 6.9982H59.9999C76.5685 6.9982 89.9999 20.4294 89.9999 36.9981V46.9982C89.9999 63.5664 76.5685 76.9981 59.9999 76.9981H50C33.4315 76.9981 19.9999 63.5664 19.9999 46.9982V36.9981C19.9999 20.4294 33.4315 6.9982 50 6.9982Z" fill="white"/>
</g>
<path d="M47.09 55.2983C45.41 55.2983 43.99 54.8383 42.83 53.9183C41.69 52.9783 40.83 51.6983 40.25 50.0783C39.67 48.4583 39.38 46.5983 39.38 44.4983C39.38 42.3983 39.67 40.5383 40.25 38.9183C40.83 37.2983 41.69 36.0283 42.83 35.1083C43.99 34.1683 45.41 33.6983 47.09 33.6983C48.79 33.6983 50.21 34.1683 51.35 35.1083C52.49 36.0283 53.35 37.2983 53.93 38.9183C54.53 40.5383 54.83 42.3983 54.83 44.4983C54.83 46.5983 54.53 48.4583 53.93 50.0783C53.35 51.6983 52.49 52.9783 51.35 53.9183C50.21 54.8383 48.79 55.2983 47.09 55.2983ZM47.09 52.3583C48.53 52.3583 49.65 51.6783 50.45 50.3183C51.27 48.9583 51.68 47.0183 51.68 44.4983C51.68 41.9783 51.27 40.0383 50.45 38.6783C49.65 37.3183 48.53 36.6383 47.09 36.6383C45.65 36.6383 44.52 37.3183 43.7 38.6783C42.9 40.0383 42.5 41.9783 42.5 44.4983C42.5 47.0183 42.9 48.9583 43.7 50.3183C44.52 51.6783 45.65 52.3583 47.09 52.3583ZM66.7827 54.9983V49.2983H58.5027L57.1227 46.5983L67.4127 33.9983H69.9027V46.3283H73.5627V49.2983H69.9027V54.9983H66.7827ZM60.9327 46.3283H66.7827V39.1883L60.9327 46.3283Z" fill="#00B0FF"/>
<defs>
<filter id="filter0_d" x="-6.10352e-05" y="0.998199" width="110" height="110" filterUnits="userSpaceOnUse" color-interpolation-filters="sRGB">
<feFlood flood-opacity="0" result="BackgroundImageFix"/>
<feColorMatrix in="SourceAlpha" type="matrix" values="0 0 0 0 0 0 0 0 0 0 0 0 0 0 0 0 0 0 127 0" result="hardAlpha"/>
<feOffset dy="14"/>
<feGaussianBlur stdDeviation="10"/>
<feColorMatrix type="matrix" values="0 0 0 0 0.296285 0 0 0 0 0.468577 0 0 0 0 0.670833 0 0 0 0.1 0"/>
<feBlend mode="normal" in2="BackgroundImageFix" result="effect1_dropShadow"/>
<feBlend mode="normal" in="SourceGraphic" in2="effect1_dropShadow" result="shape"/>
</filter>
</defs>
</svg>
