<svg width="110" height="111" viewBox="0 0 110 111" fill="none" xmlns="http://www.w3.org/2000/svg">
<g filter="url(#filter0_d)">
<path fill-rule="evenodd" clip-rule="evenodd" d="M50 6.9982H59.9999C76.5685 6.9982 89.9999 20.4294 89.9999 36.9981V46.9982C89.9999 63.5664 76.5685 76.9981 59.9999 76.9981H50C33.4315 76.9981 19.9999 63.5664 19.9999 46.9982V36.9981C19.9999 20.4294 33.4315 6.9982 50 6.9982Z" fill="white"/>
</g>
<path d="M47.09 55.2983C45.41 55.2983 43.99 54.8383 42.83 53.9183C41.69 52.9783 40.83 51.6983 40.25 50.0783C39.67 48.4583 39.38 46.5983 39.38 44.4983C39.38 42.3983 39.67 40.5383 40.25 38.9183C40.83 37.2983 41.69 36.0283 42.83 35.1083C43.99 34.1683 45.41 33.6983 47.09 33.6983C48.79 33.6983 50.21 34.1683 51.35 35.1083C52.49 36.0283 53.35 37.2983 53.93 38.9183C54.53 40.5383 54.83 42.3983 54.83 44.4983C54.83 46.5983 54.53 48.4583 53.93 50.0783C53.35 51.6983 52.49 52.9783 51.35 53.9183C50.21 54.8383 48.79 55.2983 47.09 55.2983ZM47.09 52.3583C48.53 52.3583 49.65 51.6783 50.45 50.3183C51.27 48.9583 51.68 47.0183 51.68 44.4983C51.68 41.9783 51.27 40.0383 50.45 38.6783C49.65 37.3183 48.53 36.6383 47.09 36.6383C45.65 36.6383 44.52 37.3183 43.7 38.6783C42.9 40.0383 42.5 41.9783 42.5 44.4983C42.5 47.0183 42.9 48.9583 43.7 50.3183C44.52 51.6783 45.65 52.3583 47.09 52.3583ZM59.3427 49.2683C59.6427 49.7083 60.0027 50.1783 60.4227 50.6783C60.8627 51.1783 61.3727 51.5983 61.9527 51.9383C62.5527 52.2783 63.2327 52.4483 63.9927 52.4483C64.5927 52.4483 65.1927 52.2983 65.7927 51.9983C66.3927 51.6783 66.8927 51.2183 67.2927 50.6183C67.7127 49.9983 67.9227 49.2483 67.9227 48.3683C67.9227 47.4683 67.7527 46.7483 67.4127 46.2083C67.0927 45.6683 66.6627 45.2783 66.1227 45.0383C65.5827 44.7983 64.9927 44.6783 64.3527 44.6783C63.7327 44.6783 63.1027 44.7783 62.4627 44.9783C61.8427 45.1583 61.2627 45.3583 60.7227 45.5783L59.8227 43.2083L65.4627 36.9983H57.9927V33.9983H70.0227L70.6227 35.1983L64.7427 41.7083C65.9027 41.7083 66.9527 41.9983 67.8927 42.5783C68.8527 43.1383 69.6127 43.9083 70.1727 44.8883C70.7527 45.8683 71.0427 46.9683 71.0427 48.1883C71.0427 49.6283 70.6927 50.8883 69.9927 51.9683C69.3127 53.0283 68.4127 53.8483 67.2927 54.4283C66.1927 55.0083 65.0127 55.2983 63.7527 55.2983C62.5727 55.2983 61.5527 55.1083 60.6927 54.7283C59.8527 54.3283 59.1227 53.7883 58.5027 53.1083C57.8827 52.4283 57.3227 51.6783 56.8227 50.8583L59.3427 49.2683Z" fill="#00B0FF"/>
<defs>
<filter id="filter0_d" x="-6.48499e-05" y="0.998199" width="110" height="110" filterUnits="userSpaceOnUse" color-interpolation-filters="sRGB">
<feFlood flood-opacity="0" result="BackgroundImageFix"/>
<feColorMatrix in="SourceAlpha" type="matrix" values="0 0 0 0 0 0 0 0 0 0 0 0 0 0 0 0 0 0 127 0" result="hardAlpha"/>
<feOffset dy="14"/>
<feGaussianBlur stdDeviation="10"/>
<feColorMatrix type="matrix" values="0 0 0 0 0.296285 0 0 0 0 0.468577 0 0 0 0 0.670833 0 0 0 0.1 0"/>
<feBlend mode="normal" in2="BackgroundImageFix" result="effect1_dropShadow"/>
<feBlend mode="normal" in="SourceGraphic" in2="effect1_dropShadow" result="shape"/>
</filter>
</defs>
</svg>
