<svg width="104" height="104" viewBox="0 0 104 104" fill="none" xmlns="http://www.w3.org/2000/svg">
<rect width="104" height="104" rx="50" fill="url(#paint0_linear)"/>
<path d="M51.8549 55.42C45.5066 55.5441 39.1743 54.7806 33.0694 53.155V50.155C39.1743 51.7806 45.5066 52.5441 51.8549 52.42C62.9716 52.42 72.316 50.515 75.2321 47.92H58.8149C57.5056 47.9191 56.2336 47.5136 55.1985 46.767C54.1634 46.0205 53.4237 44.9752 53.0955 43.795H51.8549C45.505 43.9093 39.1726 43.1357 33.0694 41.5V38.5C39.1743 40.1256 45.5066 40.8891 51.8549 40.765H53.176C53.2752 40.3712 53.4211 39.9889 53.611 39.625L60.3294 28.795C57.3488 28.525 54.4005 28.42 51.9355 28.42C42.9616 28.42 27.7688 29.815 27.7688 35.065V68.935C27.7688 74.17 42.9616 75.58 51.9355 75.58C60.9094 75.58 76.1021 74.185 76.1021 68.935V61.135C75.4738 64.42 64.8888 67 51.8549 67C45.5091 67.1387 39.1768 66.3904 33.0694 64.78V61.78C39.1768 63.3904 45.5091 64.1387 51.8549 64C64.8888 64 75.4738 61.42 76.1666 58.135V49.51C75.4738 52.795 64.8888 55.42 51.8549 55.42Z" fill="url(#paint1_linear)"/>
<path d="M66.2583 26.5L57.0428 41.365C56.8663 41.6555 56.7742 41.9839 56.7757 42.3177C56.7771 42.6514 56.8719 42.9791 57.0508 43.2683C57.2297 43.5576 57.4865 43.7984 57.7959 43.967C58.1053 44.1357 58.4565 44.2263 58.815 44.23H77.2622C77.6207 44.2263 77.972 44.1357 78.2813 43.967C78.5907 43.7984 78.8475 43.5576 79.0264 43.2683C79.2053 42.9791 79.3002 42.6514 79.3016 42.3177C79.303 41.9839 79.2109 41.6555 79.0345 41.365L69.8189 26.5C69.6372 26.2106 69.3772 25.9705 69.0649 25.8037C68.7525 25.6369 68.3987 25.5491 68.0386 25.5491C67.6785 25.5491 67.3247 25.6369 67.0124 25.8037C66.7001 25.9705 66.4401 26.2106 66.2583 26.5Z" fill="url(#paint2_linear)"/>
<defs>
<linearGradient id="paint0_linear" x1="104" y1="90" x2="52" y2="-20" gradientUnits="userSpaceOnUse">
<stop stop-color="#021BFF"/>
<stop stop-color="#018CFF"/>
<stop offset="0.690429" stop-color="#00A5FF"/>
<stop offset="1" stop-color="#00B0FF"/>
</linearGradient>
<linearGradient id="paint1_linear" x1="60.5" y1="52" x2="51.9677" y2="75.58" gradientUnits="userSpaceOnUse">
<stop offset="0.322917" stop-color="white"/>
<stop offset="1" stop-color="#0173FE"/>
</linearGradient>
<linearGradient id="paint2_linear" x1="68.0386" y1="25.5491" x2="68.0386" y2="44.23" gradientUnits="userSpaceOnUse">
<stop stop-color="white"/>
<stop offset="1" stop-color="#0173FE"/>
</linearGradient>
</defs>
</svg>
